<?xml version="1.0" encoding="UTF-8"?>
<svg id="Calque_2" data-name="Calque 2" xmlns="http://www.w3.org/2000/svg" viewBox="0 0 8.89 8.91">
  <defs>
    <style>
      .cls-1 {
        fill: #fff;
        stroke-width: 0px;
      }
    </style>
  </defs>
  <g id="Calque_1-2" data-name="Calque 1">
    <path class="cls-1" d="m8.21,6.83c.09-.14.16-.28.23-.43.05-.11.11-.22.16-.34.05-.13.09-.27.13-.41.04-.13.08-.26.11-.4.03-.15.04-.32.05-.48.02-.2.02-.4,0-.6-.01-.19-.02-.38-.06-.56-.02-.12-.07-.24-.1-.37-.04-.15-.08-.3-.14-.44-.05-.11-.1-.22-.16-.34-.07-.14-.14-.27-.22-.4-.07-.11-.16-.22-.24-.33-.08-.1-.16-.21-.25-.3-.13-.14-.28-.27-.42-.39-.09-.07-.17-.15-.27-.22-.14-.1-.29-.18-.44-.26-.11-.06-.22-.13-.34-.18-.14-.06-.29-.11-.44-.15-.13-.04-.26-.09-.4-.12-.14-.03-.28-.04-.43-.06-.15-.02-.31-.04-.46-.05-.15,0-.29.02-.44.03-.15.01-.3.02-.45.04-.17.03-.33.09-.49.14-.12.04-.24.06-.36.11-.18.07-.36.17-.53.27-.08.05-.18.09-.26.14-.25.16-.48.35-.7.57-.01.01-.02.03-.04.04-.17.17-.32.36-.46.56-.03.04-.05.07-.08.11-.14.22-.27.44-.37.68-.01.03-.02.05-.03.08-.1.25-.19.51-.24.78,0,0,0,0,0,0-.05.27-.08.54-.08.82,0,.04,0,.08,0,.12,0,.22.03.44.07.65.07.22.35.32.53.14l2.63-2.64c.18-.17.46-.17.63,0,.18.17.18.46,0,.63L.58,6.55l-.03.03c.12.22.25.42.41.62l.07-.07,3.96-4.02c.17-.17.49-.13.71.09.23.22.27.54.09.72l-3.88,3.95-.14.14c.2.15.42.28.64.4l.04-.04,2.56-2.55c.17-.18.46-.18.63,0,.17.17.17.45,0,.63l-1.89,1.89c-.17.17-.09.44.12.52.19.02.37.06.57.06,0,0,0,0,.01,0,.28,0,.55-.03.81-.08.05,0,.09-.02.14-.03.25-.05.49-.13.73-.23.04-.02.09-.04.13-.06.22-.1.44-.21.64-.35.02-.01.04-.02.05-.03.22-.15.42-.32.6-.5.03-.03.06-.06.09-.09.14-.14.26-.3.37-.45.06-.09.13-.17.19-.26Z"/>
  </g>
</svg>