<svg width="59" height="88" viewBox="0 0 59 88" fill="none" xmlns="http://www.w3.org/2000/svg">
<path d="M29.5 44.3733C29.5 40.5276 31.054 36.8395 33.8202 34.1202C36.5863 31.401 40.3381 29.8733 44.25 29.8733C48.1619 29.8733 51.9137 31.401 54.6798 34.1202C57.446 36.8395 59 40.5276 59 44.3733C59 48.2189 57.446 51.9071 54.6798 54.6263C51.9137 57.3456 48.1619 58.8733 44.25 58.8733C40.3381 58.8733 36.5863 57.3456 33.8202 54.6263C31.054 51.9071 29.5 48.2189 29.5 44.3733Z" fill="#0C0C0D"/>
<path d="M0 73.3733C0 69.5276 1.55401 65.8395 4.32017 63.1202C7.08634 60.401 10.8381 58.8733 14.75 58.8733H29.5V73.3733C29.5 77.2189 27.946 80.9071 25.1798 83.6263C22.4137 86.3456 18.6619 87.8733 14.75 87.8733C10.8381 87.8733 7.08634 86.3456 4.32017 83.6263C1.55401 80.9071 0 77.2189 0 73.3733Z" fill="#0C0C0D"/>
<path d="M29.5 0.873291V29.8733H44.25C48.1619 29.8733 51.9137 28.3456 54.6798 25.6263C57.446 22.9071 59 19.2189 59 15.3733C59 11.5277 57.446 7.83952 54.6798 5.12024C51.9137 2.40096 48.1619 0.873291 44.25 0.873291H29.5Z" fill="#0C0C0D"/>
<path d="M0 15.3733C0 19.2189 1.55401 22.9071 4.32017 25.6263C7.08634 28.3456 10.8381 29.8733 14.75 29.8733H29.5V0.873291H14.75C10.8381 0.873291 7.08634 2.40096 4.32017 5.12024C1.55401 7.83952 0 11.5277 0 15.3733Z" fill="#0C0C0D"/>
<path d="M0 44.3733C0 48.2189 1.55401 51.9071 4.32017 54.6263C7.08634 57.3456 10.8381 58.8733 14.75 58.8733H29.5V29.8733H14.75C10.8381 29.8733 7.08634 31.401 4.32017 34.1202C1.55401 36.8395 0 40.5276 0 44.3733Z" fill="#0C0C0D"/>
</svg>
