<svg width="95" height="95" viewBox="0 0 95 95" fill="none" xmlns="http://www.w3.org/2000/svg">
<path d="M1.16414 58.4466C0.952764 57.5456 2.02625 56.978 2.6807 57.6325L37.3675 92.3193C38.0219 92.9737 37.4544 94.0472 36.5533 93.8358C19.0489 89.7296 5.2704 75.951 1.16414 58.4466ZM0.00179678 44.5446C-0.0149648 44.8138 0.0862253 45.0765 0.27689 45.2672L49.7328 94.723C49.9235 94.9137 50.1862 95.0152 50.4554 94.9982C52.7061 94.8579 54.9145 94.5612 57.0696 94.1186C57.7959 93.9694 58.0482 93.0771 57.5239 92.5529L2.44715 37.4761C1.92289 36.9518 1.03054 37.2041 0.881387 37.9304C0.438768 40.0855 0.141983 42.2939 0.00179678 44.5446ZM4.00038 28.2201C3.84222 28.5752 3.92278 28.9902 4.19765 29.2651L65.7349 90.8023C66.0098 91.0772 66.4248 91.1578 66.7799 90.9996C68.4767 90.2438 70.1211 89.3915 71.7061 88.4498C72.2306 88.1382 72.3115 87.4174 71.8801 86.9861L8.01388 23.1199C7.58249 22.6885 6.8618 22.7694 6.55017 23.2939C5.60842 24.8789 4.75617 26.5233 4.00038 28.2201ZM12.0258 17.1703C11.6742 16.8187 11.6524 16.2548 11.9837 15.8839C20.6905 6.13634 33.3558 0 47.4543 0C73.7131 0 95 21.2869 95 47.5457C95 61.6441 88.8637 74.3094 79.1161 83.0163C78.7453 83.3475 78.1813 83.3258 77.8296 82.9742L12.0258 17.1703Z" fill="#2C33AC"/>
</svg>
