<svg width="89" height="90" viewBox="0 0 89 90" fill="none" xmlns="http://www.w3.org/2000/svg">
<path fill-rule="evenodd" clip-rule="evenodd" d="M52.4042 0.872925C51.7607 0.872925 51.1631 1.01138 50.6114 1.19597C51.7836 1.98052 52.4272 3.01889 52.749 4.19571C52.772 4.35723 52.8179 4.47261 52.841 4.63413C52.864 4.77258 52.8869 4.91103 52.8869 5.04948C52.9789 7.08007 52.3582 7.33389 51.9216 8.53378C51.255 10.0798 51.4389 11.7412 52.2433 13.0795C52.3123 13.2411 52.4042 13.4257 52.5192 13.5872C51.6457 7.74924 56.4954 6.87239 57.3918 5.04948C57.4608 3.45731 56.1507 2.39587 55.1164 1.65747C54.1281 1.05752 53.2317 0.872925 52.4042 0.872925ZM59.7133 2.18819C59.6213 2.71891 59.6902 2.58046 59.6673 2.85737C59.6443 3.04196 59.6443 3.27272 59.6214 3.45731C59.5755 3.64191 59.5294 3.82651 59.4605 4.01111C59.4146 4.19571 59.3456 4.38031 59.2766 4.5649C59.1846 4.74951 59.1157 4.91103 59.0238 5.09563C58.9548 5.18796 58.9089 5.28022 58.8399 5.37253C58.794 5.44175 58.748 5.51098 58.702 5.5802C58.5871 5.74173 58.4722 5.90325 58.3573 6.0417C58.2193 6.18015 58.1044 6.34167 57.9435 6.45705V6.48015C57.8056 6.59553 57.6677 6.73398 57.5068 6.84935C57.0242 7.21854 56.4725 7.49545 55.9669 7.84157C55.806 7.95694 55.6451 8.04925 55.5072 8.1877C55.3463 8.30307 55.2084 8.41844 55.0705 8.55689C54.9096 8.69534 54.7947 8.83379 54.6568 8.99532C54.5418 9.13377 54.4039 9.29529 54.312 9.45682C54.1971 9.61833 54.0822 9.77986 53.9902 9.94138C53.8982 10.126 53.8293 10.2875 53.7374 10.4721C53.6684 10.6567 53.5995 10.8182 53.5535 11.0028C53.4846 11.2105 53.4386 11.3951 53.3926 11.5797C53.3696 11.672 53.3696 11.7874 53.3467 11.8797C53.3236 11.972 53.3236 12.0643 53.3008 12.1566C53.3008 12.3412 53.2777 12.5488 53.2777 12.7334C53.2777 12.8719 53.2777 13.0103 53.3008 13.1488C53.3008 13.3334 53.3238 13.518 53.3697 13.7257C53.3927 13.9103 53.4387 14.0949 53.4846 14.2795C53.5536 14.4641 53.5996 14.6487 53.6685 14.8333C53.7144 14.9486 53.7834 15.064 53.8294 15.1563L48.543 13.1026C47.6466 12.8488 46.7732 12.6181 45.8768 12.4104C45.3941 12.295 44.9115 12.1796 44.4288 12.0643C43.0497 11.7874 41.6477 11.5797 40.2456 11.4413C40.1997 11.4413 40.1767 11.4182 40.1307 11.4182C38.7516 11.2797 37.3956 11.2105 36.0165 11.2105C35.0052 11.2105 33.9939 11.2566 33.0055 11.3258C31.6035 11.4182 30.2014 11.6028 28.7994 11.8335C28.4546 11.8796 28.1099 11.9489 27.7651 12.0181C27.0526 12.1565 26.3631 12.3181 25.6965 12.4796C25.3517 12.5719 25.007 12.6642 24.6622 12.7565C24.3174 12.8949 23.9957 13.0565 23.6739 13.1949C23.421 13.3103 23.1682 13.4257 22.9154 13.541C22.8695 13.5641 22.8234 13.5641 22.8005 13.5872C22.5706 13.7025 22.3638 13.7948 22.1569 13.9102C22.088 13.9333 22.042 13.9563 21.996 13.9794C21.7432 14.0948 21.4904 14.2332 21.2835 14.3486C21.1226 14.4178 20.9617 14.5101 20.8238 14.5794C20.7549 14.6255 20.6629 14.6717 20.617 14.6948C20.4101 14.8101 20.2032 14.9255 20.0194 15.0409C19.8125 15.1562 19.6286 15.2716 19.4677 15.387C19.3069 15.5024 19.146 15.5947 19.008 15.71C18.985 15.7331 18.9621 15.7331 18.9391 15.7562C18.8012 15.8485 18.6403 15.9638 18.5024 16.0792C18.5024 16.0792 18.4794 16.1023 18.4565 16.1253C18.3415 16.2177 18.2266 16.3099 18.1117 16.4022C18.0658 16.4253 18.0197 16.4714 17.9738 16.4945C17.8589 16.5869 17.7439 16.7022 17.629 16.7945C17.606 16.8406 17.5601 16.8638 17.5371 16.8869C17.3991 17.0253 17.2612 17.1407 17.1233 17.2791C17.1003 17.2791 17.1003 17.3022 17.0774 17.3252C16.9395 17.4406 16.8016 17.5791 16.6637 17.7175C16.6407 17.7406 16.6407 17.7636 16.6177 17.7636C16.5028 17.879 16.3879 17.9944 16.273 18.1328C16.227 18.1789 16.1581 18.2252 16.1121 18.2713C15.9972 18.4097 15.8593 18.5482 15.7214 18.6866C15.6983 18.7327 15.6524 18.7559 15.6294 18.802C15.4455 18.9866 15.2846 19.1712 15.1007 19.3558C15.0777 19.3789 15.0548 19.4019 15.0318 19.425C14.664 19.8173 14.2733 20.2096 13.8596 20.5557C13.4459 20.9249 13.0092 21.271 12.5725 21.571C12.1128 21.894 11.6761 22.1709 11.1934 22.4478C10.7337 22.7016 10.251 22.9324 9.74538 23.1401C9.2627 23.3478 8.75705 23.5324 8.2514 23.6939C7.28605 23.9015 6.29772 24.2938 5.4473 24.363C5.26342 24.363 5.05656 24.4092 4.87269 24.4323C4.66583 24.4784 4.48196 24.5246 4.29808 24.5707C4.11421 24.6399 3.93033 24.7092 3.74645 24.7784C3.56258 24.8476 3.37871 24.9399 3.19483 25.0322C3.03394 25.1476 2.85007 25.2399 2.68917 25.3553C2.52828 25.4706 2.36739 25.6091 2.22948 25.7475C2.0686 25.8629 1.9077 26.0244 1.7698 26.1629C1.63189 26.3244 1.49398 26.4629 1.37906 26.6244C1.26414 26.809 1.12623 26.9705 1.03429 27.1551C0.919374 27.3166 0.804455 27.5012 0.712513 27.6858C0.620538 27.8935 0.52864 28.0781 0.459686 28.2858C0.390732 28.4704 0.321779 28.678 0.252825 28.8857C0.206892 29.0703 0.160851 29.2549 0.137906 29.4395C0.137906 29.4626 0.114886 29.4856 0.114886 29.5087C0.0689532 29.7164 0.0689531 29.9933 0.0459324 30.1318C0.0229127 30.2933 0 30.4317 0 30.5933C0 30.6856 7.15521e-08 30.8009 0.0230198 30.8932C0.0460396 31.0548 0.0689522 31.1932 0.114994 31.3317C0.160927 31.4701 0.206968 31.6086 0.275879 31.747V31.7701C0.344832 31.9086 0.436774 32.047 0.528705 32.1855C0.620679 32.3239 0.712589 32.4624 0.827508 32.6008C0.942427 32.7162 1.08033 32.8546 1.21824 32.97C1.35615 33.1085 1.49406 33.2238 1.65494 33.3392C2.20657 33.8238 2.34448 33.9853 3.05699 34.3545C3.17191 34.4237 3.28684 34.4699 3.42475 34.5391C3.44777 34.5391 3.47068 34.5622 3.4937 34.5622C3.4937 34.6083 3.4937 34.6314 3.51673 34.6776C3.53975 34.8622 3.58568 35.0468 3.63164 35.2314C3.67758 35.4391 3.74657 35.6237 3.81553 35.7852C3.88448 35.9236 3.93045 36.0621 3.9994 36.2005C4.02242 36.2467 4.04534 36.2929 4.06836 36.3159C4.16033 36.5005 4.25223 36.6621 4.34416 36.8236C4.45909 36.9851 4.57401 37.1466 4.68893 37.3081C4.80385 37.4466 4.94175 37.6081 5.07966 37.7466C5.21757 37.885 5.35548 38.0004 5.51637 38.1388C5.51637 38.1388 5.5394 38.162 5.5623 38.162C5.70021 38.2773 5.83812 38.3927 5.97603 38.485C6.13691 38.6004 6.29781 38.6927 6.48168 38.785C6.64257 38.8773 6.82645 38.9696 7.01032 39.0388C7.14823 39.108 7.30911 39.1542 7.47001 39.2003C7.49303 39.2235 7.51594 39.2235 7.56198 39.2465C7.65396 39.2696 7.76883 39.2926 7.86077 39.3157C7.79182 40.5617 7.7688 41.7385 7.95275 42.1539C8.1596 42.6154 9.17092 41.2078 10.1822 39.5926C10.0443 41.1847 9.95238 43.0538 10.1822 43.6076C10.4351 44.1845 11.8141 42.3846 13.0093 40.4002C29.3052 36.6159 44.1761 47.9226 45.7391 63.8904C45.4403 61.3983 42.3834 60.0138 40.9813 60.36C40.2918 62.0675 39.1196 64.2596 37.2349 65.621C37.3957 64.0981 37.3268 62.529 37.005 61.0061C36.4994 63.1289 35.511 65.1134 34.1549 66.8209C31.9714 66.9825 29.7879 65.921 28.6387 64.3288C28.5467 64.2596 28.5238 64.1212 28.4548 64.0289C28.3859 63.8673 28.3169 63.7058 28.2709 63.5443C28.202 63.3828 28.156 63.2212 28.133 63.0597C28.11 62.8982 28.11 62.7367 28.11 62.5521C28.11 62.4367 28.11 62.3213 28.11 62.206C28.133 62.0444 28.179 61.8829 28.2249 61.7214C28.2709 61.5599 28.3169 61.3983 28.3858 61.2368C28.4778 61.0753 28.5467 60.9138 28.6616 60.7522C29.0524 59.6446 29.0524 58.7447 28.3399 58.214C28.2019 58.1217 28.064 58.0525 27.9031 57.9832C27.8112 57.9601 27.6963 57.914 27.6044 57.8909C27.5354 57.8678 27.4894 57.8448 27.4205 57.8217C27.2596 57.7756 27.0987 57.7293 26.9378 57.7063C26.7769 57.6602 26.616 57.6371 26.4551 57.6371C26.2942 57.6139 26.1104 57.591 25.9495 57.591C25.8346 57.591 25.7196 57.6141 25.6047 57.6141C25.4208 57.6141 25.2599 57.6372 25.0991 57.6833C24.9382 57.7064 24.7773 57.7294 24.6164 57.7756C24.4555 57.8217 24.2946 57.868 24.1337 57.9372C23.9728 58.0064 23.8349 58.0756 23.674 58.1448C23.5361 58.2141 23.3982 58.3064 23.2373 58.3756C17.882 61.883 21.0768 70.0976 24.7313 72.4743C23.3522 72.7282 21.9502 73.0281 21.5595 73.3281C21.5364 73.3512 21.5135 73.3742 21.5135 73.3742C22.5019 73.9742 23.5362 74.4818 24.6164 74.9202C26.0874 75.4048 27.6504 75.8432 28.3399 76.0278V76.0509C30.2476 76.4432 32.1783 76.5817 34.132 76.4663C44.314 75.751 52.6574 67.9747 54.1743 57.7295C54.2203 57.9372 54.2663 58.1217 54.3123 58.3294C54.3812 58.7448 54.4731 59.1832 54.5191 59.6216V59.6448C54.565 59.8524 54.5881 60.0601 54.6111 60.2447V60.337C54.6341 60.5447 54.657 60.7524 54.657 60.937C54.68 61.1908 54.7029 61.4446 54.7029 61.6985V62.0677C54.7029 62.183 54.726 62.3215 54.726 62.4369C54.726 62.5753 54.7029 62.7137 54.7029 62.8522V63.1752C54.7029 63.3368 54.6799 63.4752 54.6799 63.6367C54.6799 63.7291 54.6799 63.8213 54.6569 63.9367C54.6569 64.0983 54.6339 64.2598 54.6339 64.4444C54.6108 64.5136 54.6108 64.5828 54.6108 64.652C54.5878 64.8366 54.5649 64.9982 54.5419 65.1828C54.5419 65.252 54.5419 65.3212 54.5189 65.3904C54.4958 65.6212 54.4499 65.8289 54.4269 66.0596V66.0828V66.1059C54.381 66.3135 54.3349 66.5443 54.289 66.7519V66.8212C54.243 67.0288 54.197 67.2365 54.1511 67.4442C54.1511 67.4673 54.1281 67.5134 54.1281 67.5365C54.0821 67.7442 54.0361 67.9519 53.9672 68.1596V68.2288C53.8982 68.4595 53.8293 68.6672 53.7833 68.8749C53.7603 68.898 53.7603 68.921 53.7603 68.921C53.6913 69.1517 53.6224 69.3825 53.5534 69.6132C53.4615 69.844 53.3925 70.0517 53.3006 70.2824C53.2086 70.5132 53.1397 70.7439 53.0478 70.9516C52.9558 71.1823 52.8639 71.39 52.772 71.6207H52.7489C52.6569 71.8284 52.565 72.0592 52.4501 72.2669C52.4271 72.3361 52.4042 72.3822 52.3811 72.4284C52.3581 72.4515 52.3581 72.4745 52.3352 72.4976C50.8412 75.5204 48.6347 78.174 45.8766 80.2507C45.6927 80.3661 45.5089 80.5046 45.325 80.643C45.2791 80.6891 45.2101 80.7122 45.1641 80.7584C45.0032 80.8738 44.8423 80.9891 44.6584 81.1045L44.7274 81.243H44.7504C45.0722 81.1969 45.394 81.1506 45.7157 81.1045H45.7388C46.3364 81.0122 46.934 80.8968 47.5316 80.7815C47.6924 80.7583 47.8763 80.7122 48.0372 80.6661C48.1521 80.6429 48.2441 80.62 48.359 80.5969C48.5199 80.5737 48.6808 80.5276 48.8417 80.5045C48.9796 80.4584 49.1175 80.4353 49.2554 80.3892C51.5538 79.8354 53.7833 79.0739 55.9208 78.174C52.2663 83.1812 47.3707 87.2193 41.6475 89.8729C44.2908 89.6883 46.934 89.2499 49.4852 88.5115C58.7479 85.7656 66.5396 79.5123 71.2055 71.09C70.2631 76.4203 68.1485 81.4967 65.0227 85.9271C67.2522 84.4503 69.2978 82.7428 71.1595 80.8045C76.308 75.405 79.6867 68.5518 80.8359 61.1908C81.6174 64.8367 81.8472 68.5979 81.5025 72.313C98.0972 49.0765 82.8815 24.9864 76.5149 18.6408C76.4918 18.5947 76.4689 18.5716 76.4689 18.5254C76.4459 18.5485 76.4459 18.5485 76.4459 18.5715C76.4459 18.5484 76.4459 18.5484 76.4229 18.5254C76.4229 18.8023 76.3998 19.0792 76.3769 19.3561C76.308 19.8868 76.239 20.3945 76.1471 20.9021C76.0322 21.4098 75.8943 21.9174 75.7563 22.4251C75.5955 22.9096 75.4116 23.4173 75.2047 23.9019C74.9979 24.3633 74.768 24.8479 74.5152 25.3094C74.2624 25.7478 73.9865 26.2093 73.6878 26.6247C73.389 27.0631 73.0672 27.4785 72.7454 27.8707C72.4006 28.2861 72.0329 28.6553 71.6651 29.0245C71.4353 29.2322 71.2284 29.4167 70.9986 29.6013C70.8147 29.7629 70.6538 29.9013 70.4699 30.0628C70.0562 30.3859 69.6425 30.6859 69.1828 30.9628C68.7461 31.2397 68.2864 31.5166 67.8267 31.7473C67.3441 31.9781 66.8614 32.1857 66.3787 32.3934C65.896 32.578 65.3904 32.7395 64.8847 32.878C64.3791 33.0164 63.8504 33.1318 63.3448 33.2241C62.8161 33.3164 62.2875 33.3625 61.7818 33.4087C61.4141 33.4318 61.0464 33.4548 60.6786 33.4548C60.15 33.4548 59.6213 33.4087 59.1157 33.3625C58.587 33.3164 58.0584 33.2471 57.5527 33.1317C57.0241 33.0394 56.5184 32.901 56.0128 32.7395H55.9897C56.4954 32.6933 57.0011 32.6471 57.5067 32.5549C58.0354 32.4625 58.541 32.3472 59.0467 32.2087C59.5523 32.0703 60.058 31.9088 60.5407 31.7242C61.0463 31.5396 61.529 31.3088 61.9887 31.0781C62.4713 30.8473 62.9081 30.5935 63.3677 30.3166C63.8044 30.0166 64.2411 29.7167 64.6549 29.3936C65.0686 29.0705 65.4593 28.7244 65.8271 28.3552C66.2178 28.0091 66.5626 27.6168 66.9073 27.2246C67.2521 26.8092 67.5739 26.3939 67.8727 25.9785C67.9186 25.9093 67.9647 25.817 68.0106 25.7478C68.2404 25.3786 68.4703 25.0094 68.6771 24.6402C68.93 24.1787 69.1598 23.7172 69.3667 23.2326C69.5735 22.748 69.7574 22.2635 69.9183 21.7558C70.0792 21.2712 70.1941 20.7636 70.309 20.256C70.401 19.7252 70.4929 19.2176 70.5389 18.7099C70.5848 18.1792 70.6308 17.6485 70.6308 17.1408C70.6308 16.7716 70.6078 16.4024 70.5849 16.0332C70.539 15.5025 70.47 14.9949 70.401 14.4872C70.3091 13.9565 70.1942 13.4489 70.0563 12.9412C69.8954 12.4566 69.7345 11.949 69.5506 11.4644C69.3667 10.9798 69.1369 10.4953 68.907 10.0338C68.6542 9.57228 68.4014 9.11078 68.1256 8.67236C67.8268 8.23395 67.528 7.81859 67.2062 7.40324C66.8614 7.01097 66.5167 6.6187 66.1489 6.22643C65.965 6.04183 65.7582 5.83415 65.5513 5.64956C64.517 4.84193 63.4368 4.08046 62.3565 3.38822C62.1956 3.29588 62.0577 3.22669 61.8968 3.15746C61.1383 2.67289 60.4258 2.41894 59.7133 2.18819Z" fill="#E0234E"/>
</svg>
