<svg width="143" height="94" viewBox="0 0 143 94" fill="none" xmlns="http://www.w3.org/2000/svg">
<path d="M80.2243 94H133.383C135.072 94.0002 136.731 93.5659 138.193 92.7409C139.655 91.9157 140.869 90.729 141.713 89.2999C142.557 87.8706 143.001 86.2495 143 84.5995C142.999 82.9495 142.554 81.3288 141.709 79.9003L106.009 19.4719C105.165 18.0431 103.951 16.8565 102.489 16.0315C101.027 15.2067 99.3688 14.7723 97.6806 14.7723C95.9926 14.7723 94.3341 15.2067 92.8723 16.0315C91.4104 16.8565 90.1965 18.0431 89.3528 19.4719L80.2243 34.9334L62.3768 4.6989C61.5323 3.27026 60.3179 2.08382 58.8556 1.25897C57.3932 0.434279 55.7346 0 54.0462 0C52.3579 0 50.6992 0.434279 49.237 1.25897C47.7746 2.08382 46.5602 3.27026 45.7157 4.6989L1.29121 79.9003C0.446069 81.3288 0.000735552 82.9495 9.10399e-07 84.5995C-0.000733731 86.2495 0.443155 87.8706 1.28702 89.2999C2.13089 90.729 3.34498 91.9157 4.80718 92.7409C6.26937 93.5659 7.92813 94.0002 9.61659 94H42.9855C56.2066 94 65.9567 88.3248 72.6656 77.2525L88.9538 49.686L97.6781 34.9334L123.861 79.2473H88.9538L80.2243 94ZM42.4414 79.2321L19.1542 79.227L54.0618 20.1451L71.4793 49.686L59.8175 69.4307C55.3621 76.6147 50.3006 79.2321 42.4414 79.2321Z" fill="white"/>
</svg>
