<svg width="87" height="88" viewBox="0 0 87 88" fill="none" xmlns="http://www.w3.org/2000/svg">
<path fill-rule="evenodd" clip-rule="evenodd" d="M43.5 10.6812C62.096 10.6812 77.1733 25.7297 77.1733 44.2901C77.1733 62.8505 62.096 77.899 43.5 77.899C24.904 77.899 9.82668 62.8505 9.82668 44.2901C9.82668 25.7297 24.904 10.6812 43.5 10.6812Z" fill="#198CFF"/>
<path fill-rule="evenodd" clip-rule="evenodd" d="M1.40381 44.2901C1.40381 67.4906 20.255 86.2876 43.5 86.2876C66.745 86.2876 85.5962 67.4724 85.5962 44.2719C85.5962 21.0714 66.745 2.25622 43.5 2.25622C20.255 2.25622 1.40381 21.0896 1.40381 44.2901ZM9.82668 44.2901C9.82668 62.8505 24.904 77.899 43.5 77.899C62.096 77.899 77.1733 62.8505 77.1733 44.2901C77.1733 25.7297 62.096 10.6812 43.5 10.6812C24.904 10.6812 9.82668 25.7297 9.82668 44.2901Z" fill="white"/>
<path fill-rule="evenodd" clip-rule="evenodd" d="M0 44.2901C0 68.2731 19.4711 87.707 43.5 87.707C67.5289 87.707 87 68.2731 87 44.2901C87 20.3071 67.5289 0.873291 43.5 0.873291C19.4711 0.873291 0 20.3071 0 44.2901ZM1.40381 44.2901C1.40381 21.0896 20.2368 2.27442 43.5 2.27442C66.7632 2.27442 85.5962 21.0896 85.5962 44.2901C85.5962 67.4906 66.7632 86.3058 43.5 86.3058C20.2368 86.3058 1.40381 67.4906 1.40381 44.2901ZM11.2305 44.2901C11.2305 62.0681 25.6697 76.4979 43.5 76.4979C61.3303 76.4979 75.7695 62.0863 75.7695 44.2901C75.7695 26.5122 61.3303 12.0823 43.5 12.0823C25.6697 12.0823 11.2305 26.494 11.2305 44.2901ZM9.82668 44.2901C9.82668 25.7297 24.904 10.6812 43.5 10.6812C62.096 10.6812 77.1733 25.7297 77.1733 44.2901C77.1733 62.8505 62.096 77.899 43.5 77.899C24.904 77.899 9.82668 62.8505 9.82668 44.2901Z" fill="black"/>
<path fill-rule="evenodd" clip-rule="evenodd" d="M57.9757 79.4093C70.7924 73.9686 79.7622 61.3038 79.7622 46.5647C79.7622 26.8397 63.7004 10.8632 43.9011 10.8632C24.0836 10.8632 8.04005 26.8579 8.04005 46.5647C8.04005 66.2169 24.0107 82.1752 43.737 82.2662H43.5547C22.771 82.2662 5.90695 65.489 5.90695 44.7996C5.90695 24.1102 22.7527 7.31484 43.5365 7.31484C64.3202 7.31484 81.1842 24.092 81.1842 44.7814C81.1842 60.394 71.5945 73.7684 57.9757 79.4093ZM42.8072 82.6847C66.034 82.6847 84.8487 63.9423 84.8487 40.8328C84.8487 38.6856 84.6847 36.5566 84.3747 34.5004C85.1587 37.6848 85.578 41.0148 85.578 44.4539C85.578 67.5634 66.745 86.3058 43.5365 86.3058C22.4793 86.3058 5.03186 70.8934 1.969 50.7863C6.45391 69.0919 23.0262 82.6847 42.8072 82.6847Z" fill="black" fill-opacity="0.1"/>
<path fill-rule="evenodd" clip-rule="evenodd" d="M43.5 19.088C57.447 19.088 68.7504 30.3698 68.7504 44.2901C68.7504 58.2104 57.447 69.4923 43.5 69.4923C29.553 69.4923 18.2496 58.2104 18.2496 44.2901C18.2314 30.3698 29.553 19.088 43.5 19.088Z" fill="#F3F3F3"/>
<path fill-rule="evenodd" clip-rule="evenodd" d="M43.5 19.088C29.553 19.088 18.2496 30.3698 18.2496 44.2901C18.2496 58.2104 29.553 69.4923 43.5 69.4923C57.447 69.4923 68.7504 58.2104 68.7504 44.2901C68.7504 30.3698 57.447 19.088 43.5 19.088ZM43.5 17.6868C58.2309 17.6868 70.1542 29.6056 70.1542 44.2901C70.1542 58.9929 58.2127 70.8934 43.5 70.8934C28.7873 70.8934 16.8457 58.9747 16.8457 44.2901C16.8276 29.5874 28.769 17.6868 43.5 17.6868Z" fill="black" fill-opacity="0.25"/>
<path fill-rule="evenodd" clip-rule="evenodd" d="M54.7123 44.2901C54.7123 50.4769 49.6804 55.4992 43.4818 55.4992C37.2831 55.4992 32.2513 50.4769 32.2513 44.2901C32.2513 38.1033 37.2831 33.0811 43.4818 33.0811C49.6804 33.0811 54.7123 38.1033 54.7123 44.2901Z" fill="black" fill-opacity="0.05"/>
<path fill-rule="evenodd" clip-rule="evenodd" d="M53.3085 44.2901C53.3085 38.8676 48.9147 34.4822 43.4818 34.4822C38.0488 34.4822 33.6551 38.8676 33.6551 44.2901C33.6551 49.7127 38.0488 54.098 43.4818 54.098C48.9147 54.0799 53.3085 49.6945 53.3085 44.2901ZM54.7123 44.2901C54.7123 50.4769 49.6804 55.4992 43.4818 55.4992C37.2831 55.4992 32.2513 50.4769 32.2513 44.2901C32.2513 38.1033 37.2831 33.0811 43.4818 33.0811C49.6804 33.0811 54.7123 38.1033 54.7123 44.2901Z" fill="black" fill-opacity="0.15"/>
<path fill-rule="evenodd" clip-rule="evenodd" d="M54.7123 44.2901C54.7123 38.1033 49.6804 33.0811 43.4818 33.0811C37.2831 33.0811 32.2513 38.1033 32.2513 44.2901C32.2513 50.4769 37.2831 55.4992 43.4818 55.4992C49.6804 55.4992 54.7123 50.4769 54.7123 44.2901ZM56.1161 44.2901C56.1161 51.2594 50.4644 56.9003 43.4818 56.9003C36.4992 56.9003 30.8475 51.2594 30.8475 44.2901C30.8475 37.3209 36.4992 31.68 43.4818 31.68C50.4644 31.68 56.1161 37.3209 56.1161 44.2901Z" fill="white"/>
<path fill-rule="evenodd" clip-rule="evenodd" d="M49.097 46.9832V27.4766H37.8665V63.8877H49.097V52.1874L46.2894 49.5853L49.097 46.9832ZM37.8848 39.1769V44.3811L40.6924 41.779L37.8848 39.1769Z" fill="white"/>
<path fill-rule="evenodd" clip-rule="evenodd" d="M49.097 45.5821V26.0754H37.8665V62.4866H49.097V50.7863L46.2894 48.1842L49.097 45.5821ZM37.8848 37.7758V42.98L40.6924 40.3779L37.8848 37.7758Z" fill="#4C4C4C"/>
<path fill-rule="evenodd" clip-rule="evenodd" d="M47.6933 46.1825V28.8777H39.2703V62.4866H47.6933V52.6605L45.5966 49.9856V48.5663L47.6933 46.1825ZM39.2886 45.1453L41.3852 42.798V41.3787L39.2886 38.9767V45.1453Z" fill="#7F7F7F"/>
</svg>
