<svg width="96" height="98" viewBox="0 0 96 98" fill="none" xmlns="http://www.w3.org/2000/svg">
<path d="M89.6942 40.2934C90.7823 37.0272 91.1587 33.5672 90.798 30.1445C90.4374 26.7218 89.3481 23.4152 87.6029 20.4456C85.0157 15.9571 81.0651 12.4033 76.3208 10.2968C71.5764 8.19035 66.2835 7.63988 61.2051 8.72482C58.3199 5.5261 54.641 3.14034 50.538 1.80717C46.4349 0.47399 42.0521 0.240329 37.8298 1.12965C33.6074 2.01897 29.6942 3.99997 26.4831 6.87367C23.272 9.74738 20.8761 13.4126 19.5361 17.5013C16.1528 18.1927 12.9565 19.596 10.1609 21.6173C7.36531 23.6385 5.03476 26.2312 3.32501 29.2221C0.709611 33.7031 -0.408193 38.8971 0.133203 44.0531C0.674599 49.209 2.84714 54.0598 6.33673 57.9041C5.24455 61.1686 4.86442 64.628 5.22178 68.0508C5.57913 71.4736 6.66573 74.7809 8.40889 77.7514C10.9994 82.2416 14.9535 85.7961 19.7012 87.9026C24.4488 90.0091 29.7449 90.5589 34.8262 89.4726C37.1184 92.0454 39.9349 94.1011 43.0877 95.5025C46.2405 96.904 49.657 97.6189 53.1091 97.5996C58.3143 97.6044 63.3865 95.9604 67.5933 92.9051C71.8002 89.8498 74.9242 85.5412 76.5143 80.6012C79.8972 79.9085 83.093 78.5047 85.8884 76.4835C88.6839 74.4623 91.0147 71.8701 92.7253 68.88C95.3098 64.4055 96.4084 59.231 95.864 54.0966C95.3195 48.9622 93.16 44.1306 89.6942 40.2934ZM53.1091 91.251C48.846 91.2577 44.7166 89.7685 41.445 87.0444L42.0204 86.7195L61.3969 75.5718C61.8791 75.2899 62.2795 74.8878 62.5587 74.405C62.8379 73.9222 62.9863 73.3754 62.9893 72.8182V45.59L71.1806 50.313C71.2211 50.3335 71.2562 50.3632 71.2829 50.3997C71.3097 50.4362 71.3275 50.4785 71.3347 50.5232V73.0861C71.3244 77.9007 69.4009 82.5151 65.9851 85.9194C62.5694 89.3238 57.9396 91.2408 53.1091 91.251ZM13.934 74.5775C11.796 70.8981 11.0284 66.585 11.7661 62.3972L12.3419 62.7415L31.7375 73.8892C32.2174 74.1699 32.7637 74.3179 33.3202 74.3179C33.8766 74.3179 34.423 74.1699 34.9029 73.8892L58.596 60.2749V69.7017C58.5938 69.7505 58.5805 69.7982 58.5572 69.8413C58.5339 69.8843 58.5011 69.9216 58.4614 69.9502L38.8355 81.2317C34.6471 83.6365 29.6724 84.2865 25.0036 83.0389C20.3348 81.7913 16.3536 78.7481 13.934 74.5775ZM8.83102 32.5112C10.9838 28.8081 14.3818 25.9836 18.4234 24.5378V47.4831C18.4161 48.0374 18.5582 48.5835 18.8349 49.0645C19.1115 49.5454 19.5126 49.9435 19.9963 50.2172L43.5743 63.7742L35.3826 68.4968C35.3383 68.5203 35.2888 68.5326 35.2386 68.5326C35.1884 68.5326 35.139 68.5203 35.0947 68.4968L15.5073 57.2348C11.3268 54.8195 8.27689 50.8515 7.02555 46.1998C5.77422 41.548 6.42343 36.5915 8.83102 32.4158V32.5112ZM76.1307 48.095L52.4761 34.4043L60.6487 29.6998C60.693 29.6763 60.7425 29.6641 60.7927 29.6641C60.8429 29.6641 60.8923 29.6763 60.9366 29.6998L80.524 40.9813C83.5189 42.7036 85.9604 45.2396 87.5634 48.293C89.1665 51.3465 89.865 54.7915 89.5774 58.2258C89.2898 61.6601 88.0279 64.942 85.939 67.6883C83.8502 70.4346 81.0206 72.532 77.7807 73.7356V50.7904C77.7637 50.237 77.6026 49.6975 77.3133 49.2249C77.0239 48.7522 76.6167 48.3631 76.1307 48.095ZM84.2842 35.8766L83.7084 35.5323L64.3514 24.2892C63.8686 24.0068 63.3188 23.8579 62.759 23.8579C62.1991 23.8579 61.6494 24.0068 61.1665 24.2892L37.4933 37.9031V28.4768C37.4882 28.4289 37.4963 28.3805 37.5165 28.3367C37.5368 28.293 37.5686 28.2555 37.6084 28.2282L57.1958 16.9657C60.1978 15.2421 63.6302 14.4059 67.0915 14.5551C70.5529 14.7043 73.9 15.8328 76.7415 17.8084C79.583 19.784 81.8014 22.5251 83.1372 25.7112C84.473 28.8973 84.871 32.3966 84.2847 35.7999L84.2842 35.8766ZM33.0225 52.5877L24.8312 47.884C24.7902 47.8594 24.7552 47.8261 24.7286 47.7865C24.7019 47.7469 24.6844 47.702 24.6771 47.6548V25.1497C24.6816 21.6972 25.6722 18.3173 27.5329 15.4053C29.3937 12.4932 32.0478 10.1692 35.1849 8.70517C38.322 7.24108 41.8124 6.69736 45.2481 7.13757C48.6838 7.57778 51.9228 8.98373 54.5863 11.191L54.0105 11.5164L34.6344 22.6633C34.1522 22.9452 33.7518 23.3472 33.4726 23.83C33.1934 24.3128 33.045 24.8596 33.042 25.4168L33.0225 52.5877ZM37.4734 43.0275L48.0248 36.9659L58.596 43.0275V55.1501L48.0633 61.2114L37.4929 55.1501L37.4734 43.0275Z" fill="white"/>
</svg>
