<svg width="73" height="88" viewBox="0 0 73 88" fill="none" xmlns="http://www.w3.org/2000/svg">
<path fill-rule="evenodd" clip-rule="evenodd" d="M64.97 69.8812L25.9022 81.436C24.7086 81.7894 23.5647 80.7569 23.8155 79.5532L37.7723 12.7126C38.0333 11.4633 39.761 11.2648 40.3061 12.4224L66.1479 67.2977C66.6353 68.3329 66.0793 69.5536 64.97 69.8812ZM71.6697 67.1557L41.7484 3.61699V3.61563C41.3767 2.83321 40.8001 2.16599 40.0798 1.6847C39.3596 1.20342 38.5225 0.92602 37.6574 0.881917C35.8365 0.775885 34.2053 1.65404 33.285 3.14868L0.833879 55.709C0.340885 56.503 0.0844142 57.421 0.0945262 58.3556C0.104638 59.2901 0.380914 60.2024 0.890972 60.9855L16.7536 85.5576C17.699 87.0244 19.3371 87.8733 21.0397 87.8733C21.5223 87.8733 22.0076 87.8053 22.4847 87.664L68.5296 74.0457C69.2227 73.8426 69.8641 73.4931 70.4106 73.0208C70.957 72.5485 71.3956 71.9643 71.6969 71.3079C71.9943 70.6553 72.1459 69.9457 72.1412 69.2285C72.1365 68.5113 71.9756 67.8044 71.6697 67.1557Z" fill="#0C344B"/>
</svg>
