<svg width="94" height="94" viewBox="0 0 94 94" fill="none" xmlns="http://www.w3.org/2000/svg">
<path fill-rule="evenodd" clip-rule="evenodd" d="M94 46.9973L89.099 51.905L70.5053 33.306V23.496L94 46.9973ZM47.0321 0L42.1311 4.90769L60.7195 23.5013H70.5267L47.0321 0ZM36.514 10.5264L31.6077 15.4288L39.678 23.5013H49.4852L36.514 10.5264ZM70.5267 44.5488V54.3589L78.597 62.4314L83.5033 57.5291L70.5267 44.5488ZM67.6995 62.7682L70.5053 59.9562H34.0395V23.496L31.2282 26.308L25.9692 21.0689L21.0682 25.9766L26.3273 31.2371L23.516 34.0224V39.6411L15.4458 31.5686L10.5395 36.4763L23.516 49.4512V60.6779L4.92768 42.095L0 46.9973L47.0321 94L51.9384 89.0976L33.3447 70.4987H44.5682L57.5395 83.4736L62.4458 78.5659L54.3755 70.4933H59.9926L62.8038 67.6813L68.0629 72.9418L72.9638 68.0341L67.6995 62.7682Z" fill="#0C0C0D"/>
</svg>
