<svg width="161" height="97" viewBox="0 0 161 97" fill="none" xmlns="http://www.w3.org/2000/svg">
<path fill-rule="evenodd" clip-rule="evenodd" d="M80.5 0C59.0333 0 45.6167 10.7333 40.25 32.2C48.3 21.4667 57.6917 17.4417 68.425 20.125C74.549 21.6545 78.9258 26.0999 83.7707 31.0163C91.6627 39.0276 100.798 48.3 120.75 48.3C142.217 48.3 155.633 37.5667 161 16.1C152.95 26.8333 143.558 30.8583 132.825 28.175C126.701 26.6455 122.324 22.2001 117.479 17.2836C109.587 9.27241 100.452 0 80.5 0ZM40.25 48.3C18.7833 48.3 5.36667 59.0333 0 80.5C8.05 69.7667 17.4417 65.7417 28.175 68.425C34.299 69.9575 38.6758 74.3999 43.5207 79.3164C51.4127 87.3276 60.5479 96.6 80.5 96.6C101.967 96.6 115.383 85.8667 120.75 64.4C112.7 75.1333 103.308 79.1583 92.575 76.475C86.451 74.9455 82.0742 70.5001 77.2293 65.5836C69.3373 57.5724 60.2021 48.3 40.25 48.3Z" fill="white"/>
</svg>
