<svg width="96" height="95" viewBox="0 0 96 95" fill="currentColor" xmlns="http://www.w3.org/2000/svg">
<path fill-rule="evenodd" clip-rule="evenodd" d="M48.0397 0.873108C21.475 0.873108 0 22.4147 0 49.0646C0 70.3672 13.7598 88.3995 32.8482 94.7817C35.2348 95.2614 36.1089 93.7447 36.1089 92.4689C36.1089 91.3516 36.0303 87.5221 36.0303 83.5321C22.6668 86.4049 19.884 77.7873 19.884 77.7873C17.7364 72.2022 14.5543 70.7667 14.5543 70.7667C10.1804 67.8145 14.8729 67.8145 14.8729 67.8145C19.7247 68.1337 22.2705 72.7613 22.2705 72.7613C26.5647 80.1011 33.4844 78.0272 36.2682 76.7504C36.6655 73.6386 37.9389 71.4844 39.291 70.2879C28.6327 69.1707 17.4187 65.022 17.4187 46.5109C17.4187 41.245 19.3264 36.9366 22.3492 33.586C21.8723 32.3894 20.2016 27.4417 22.8271 20.8196C22.8271 20.8196 26.8833 19.5428 36.0293 25.7664C39.945 24.7115 43.9832 24.1748 48.0397 24.1703C52.096 24.1703 56.2309 24.7294 60.0492 25.7664C69.1961 19.5428 73.2524 20.8196 73.2524 20.8196C75.8779 27.4417 74.2062 32.3894 73.7293 33.586C76.8317 36.9366 78.6607 41.245 78.6607 46.5109C78.6607 65.022 67.4468 69.0904 56.7088 70.2879C58.4591 71.8036 59.9695 74.6755 59.9695 79.2237C59.9695 85.6862 59.8908 90.8728 59.8908 92.4679C59.8908 93.7447 60.766 95.2614 63.1516 94.7826C82.24 88.3985 95.9998 70.3672 95.9998 49.0646C96.0785 22.4147 74.5248 0.873108 48.0397 0.873108Z" />
</svg>
