<svg width="93" height="94" viewBox="0 0 93 94" fill="currentColor" xmlns="http://www.w3.org/2000/svg">
<path d="M46.4997 9.25184C58.9157 9.25184 60.3863 9.29928 65.29 9.52299C69.8237 9.72991 72.2856 10.4872 73.9243 11.1241C75.944 11.8695 77.771 13.0581 79.2709 14.6025C80.8153 16.1024 82.0039 17.9294 82.7493 19.9491C83.3861 21.5876 84.1436 24.0498 84.3504 28.5835C84.5741 33.4869 84.6215 34.9575 84.6215 47.3739C84.6215 59.7904 84.5741 61.2606 84.3504 66.1644C84.1434 70.6981 83.3859 73.16 82.7493 74.7988C81.9757 76.8042 80.7908 78.6255 79.2709 80.1454C77.751 81.6653 75.9298 82.8502 73.9243 83.6238C72.2858 84.2606 69.8237 85.0182 65.29 85.2249C60.3876 85.4486 58.917 85.496 46.4997 85.496C34.0824 85.496 32.6124 85.4486 27.7094 85.2249C23.1758 85.018 20.7138 84.2604 19.0751 83.6238C17.0554 82.8784 15.2285 81.6898 13.7285 80.1454C12.1842 78.6454 10.9956 76.8185 10.2501 74.7988C9.61333 73.1602 8.85581 70.6981 8.64908 66.1644C8.42537 61.2612 8.37793 59.7904 8.37793 47.3739C8.37793 34.9575 8.42537 33.4873 8.64908 28.5835C8.85599 24.0498 9.61333 21.5878 10.2501 19.9491C10.9956 17.9293 12.1844 16.1023 13.7289 14.6023C15.2288 13.0579 17.0558 11.8693 19.0755 11.1239C20.714 10.4871 23.1761 9.72954 27.7098 9.52281C32.6132 9.29909 34.0837 9.25165 46.5001 9.25165M46.5001 0.873291C33.8715 0.873291 32.2874 0.92682 27.3284 1.15312C22.3789 1.37905 18.9989 2.165 16.0412 3.31457C12.9385 4.48217 10.1278 6.31252 7.80517 8.67797C5.4392 11.0005 3.60836 13.8112 2.44034 16.914C1.29169 19.872 0.505751 23.252 0.280747 28.2016C0.0535284 33.1606 0 34.7446 0 47.3734C0 60.0021 0.0535284 61.5862 0.280747 66.5452C0.506674 71.4948 1.29262 74.8748 2.44219 77.8326C3.60978 80.9353 5.44011 83.7459 7.80554 86.0686C10.1282 88.4341 12.9388 90.2644 16.0415 91.432C18.9994 92.5816 22.3795 93.3675 27.3288 93.5935C32.2885 93.8198 33.872 93.8733 46.5005 93.8733C59.1289 93.8733 60.7132 93.8198 65.6721 93.5935C70.6216 93.3675 74.0017 92.5816 76.9594 91.432C80.0483 90.2373 82.8536 88.4105 85.1954 86.0686C87.5373 83.7268 89.3641 80.9215 90.5587 77.8326C91.7083 74.8746 92.4942 71.4946 92.7202 66.5452C92.9465 61.5855 93 60.0019 93 47.3734C93 34.7448 92.9465 33.1606 92.7202 28.2016C92.4942 23.252 91.7083 19.872 90.5587 16.9142C89.3912 13.8115 87.5608 11.0008 85.1954 8.67816C82.8727 6.31223 80.0618 4.4815 76.9588 3.31365C74.0009 2.165 70.6209 1.37905 65.6714 1.15404C60.7124 0.92682 59.1284 0.873291 46.4997 0.873291H46.5001Z" />
<path d="M46.4997 23.4949C41.777 23.4949 37.1604 24.8954 33.2337 27.5192C29.3069 30.143 26.2464 33.8723 24.4391 38.2355C22.6318 42.5987 22.1589 47.3999 23.0803 52.0318C24.0016 56.6638 26.2758 60.9185 29.6152 64.258C32.9547 67.5975 37.2094 69.8717 41.8413 70.793C46.4732 71.7144 51.2744 71.2415 55.6375 69.4342C60.0007 67.6269 63.73 64.5663 66.3538 60.6395C68.9776 56.7127 70.378 52.0961 70.378 47.3734C70.378 41.0404 67.8623 34.9668 63.3842 30.4888C58.9062 26.0107 52.8326 23.4949 46.4997 23.4949ZM46.4997 62.8733C43.4342 62.8732 40.4375 61.9642 37.8886 60.261C35.3397 58.5578 33.353 56.1371 32.1799 53.3048C31.0068 50.4726 30.6999 47.3561 31.298 44.3494C31.8961 41.3427 33.3723 38.5809 35.54 36.4132C37.7077 34.2455 40.4695 32.7693 43.4761 32.1713C46.4828 31.5732 49.5993 31.8802 52.4315 33.0534C55.2637 34.2265 57.6844 36.2132 59.3875 38.7621C61.0906 41.3111 61.9997 44.3078 61.9997 47.3734C61.9996 51.4842 60.3666 55.4267 57.4598 58.3335C54.553 61.2403 50.6105 62.8733 46.4997 62.8733Z" />
<path d="M71.3214 28.1314C74.4031 28.1314 76.9013 25.6332 76.9013 22.5515C76.9013 19.4698 74.4031 16.9716 71.3214 16.9716C68.2397 16.9716 65.7415 19.4698 65.7415 22.5515C65.7415 25.6332 68.2397 28.1314 71.3214 28.1314Z" />
</svg>
