<svg width="87" height="86" viewBox="0 0 87 86" fill="none" xmlns="http://www.w3.org/2000/svg">
<path d="M15.4048 0.531982H71.5952C80.1119 0.531982 87 7.42005 87 15.9368V69.9555C87 78.4723 80.1119 85.3604 71.5952 85.3604H15.4048C6.88807 85.3604 0 78.4723 0 69.9555V15.9368C0 7.42005 6.88807 0.531982 15.4048 0.531982Z" fill="#001E36"/>
<path d="M45.6716 60.4887H22.7001C22.2929 60.4887 22.1232 60.2851 22.1232 59.844V22.791C22.0893 22.5534 22.259 22.3159 22.5304 22.282C22.5644 22.282 22.5983 22.282 22.6661 22.282H29.7578C29.9275 22.2481 30.165 22.3838 30.165 22.5874C30.165 22.6213 30.165 22.6552 30.165 22.6892V53.1256H46.9271C47.3003 53.1256 47.4021 53.2952 47.3342 53.6346L46.2824 59.9458C46.2824 60.1154 46.1806 60.2851 46.0788 60.3869C45.9431 60.4548 45.8073 60.4887 45.6716 60.4887Z" fill="#31A8FF"/>
<path d="M51.4739 31.4774H57.819C58.1923 31.4774 58.4637 31.7149 58.5655 32.0542C58.7012 32.2917 58.803 32.5971 58.8709 32.9025C58.9388 33.2757 59.0066 33.649 59.0406 34.0222C59.0745 34.4294 59.1084 34.8705 59.1084 35.3116C60.1942 34.0562 61.5176 33.0043 62.9766 32.1899C64.6392 31.2738 66.5055 30.8327 68.3717 30.9005C68.6092 30.8666 68.8467 31.0363 68.8807 31.3077C68.8807 31.3417 68.8807 31.3756 68.8807 31.4434V38.5351C68.8807 38.8405 68.711 38.9423 68.3038 38.9423C65.9626 38.8066 63.5874 39.2477 61.4497 40.1638C60.7371 40.5031 60.0246 40.9103 59.4817 41.5211V60.0137C59.4817 60.3869 59.3459 60.5226 59.0066 60.5226H51.9489C51.6435 60.5566 51.406 60.3869 51.3721 60.0815C51.3721 60.0476 51.3721 59.9797 51.3721 59.9458V39.8584C51.3721 38.9762 51.3721 38.094 51.3381 37.1439C51.3042 36.1938 51.3042 35.2438 51.2703 34.3276C51.2364 33.5133 51.1685 32.7328 51.0667 31.9185C51.0328 31.7488 51.1346 31.5452 51.3042 31.5113C51.3721 31.4434 51.406 31.4434 51.4739 31.4774Z" fill="#31A8FF"/>
</svg>
