<svg width="90" height="91" viewBox="0 0 90 91" fill="currentColor" xmlns="http://www.w3.org/2000/svg">
<path fill-rule="evenodd" clip-rule="evenodd" d="M6.65156 0.873291C2.97914 0.873291 0 3.76173 0 7.32024V84.4284C0 87.9873 2.97949 90.8733 6.65156 90.8733H83.3484C87.0223 90.8733 90 87.987 90 84.4274V7.32024C90 3.76173 87.0223 0.873291 83.3484 0.873291H6.65156ZM27.3502 35.6731V76.1913H13.8825V35.6731H27.3502ZM28.2379 23.1423C28.2379 27.0306 25.3146 30.1419 20.6192 30.1419L20.6181 30.1416H20.5309C16.0109 30.1416 13.0887 27.0303 13.0887 23.142C13.0887 19.1654 16.0991 16.141 20.7085 16.141C25.3146 16.141 28.15 19.1654 28.2379 23.1423ZM48.2713 76.1913H34.8047L34.8043 76.1928C34.8043 76.1928 34.9812 39.4756 34.8054 35.6745H48.2724V41.4097C50.0626 38.6494 53.2666 34.7231 60.41 34.7231C69.2705 34.7231 75.9136 40.5144 75.9136 52.9594V76.1913H62.4474V54.5175C62.4474 49.0701 60.4972 45.3547 55.6253 45.3547C51.904 45.3547 49.6881 47.8603 48.715 50.2808C48.3592 51.1446 48.2713 52.3572 48.2713 53.5665V76.1913Z" />
</svg>
