<svg width="97" height="98" viewBox="0 0 97 98" fill="currentColor" xmlns="http://www.w3.org/2000/svg">
<path d="M54.8309 21.7343C53.5866 20.1028 52.1452 18.6523 50.376 17.2444C52.9498 15.5889 55.6409 14.6202 58.4891 14.2289C71.6619 12.4191 82.2529 16.9915 90.049 27.6348C100.707 42.1824 99.3824 64.4936 84.1873 77.841C71.9524 88.5853 51.4098 86.206 42.8144 72.6777C40.4671 68.9862 38.1251 65.3054 36.1348 61.4143C34.9838 59.1627 33.7954 56.935 32.3753 54.8378C30.9872 52.7831 29.4951 50.811 27.7579 48.9213V41.1471C29.2739 41.73 30.401 42.7467 31.5067 43.7607C34.8079 46.7841 37.3071 50.4277 39.5079 54.2895C42.4521 59.4581 45.3563 64.6267 48.9079 69.4387C56.712 80.0154 72.9755 81.6788 83.007 69.9523C93.638 57.5232 92.9852 38.1743 81.2245 27.2648C73.6443 20.2359 64.8091 18.5565 54.8336 21.737L54.8309 21.7343Z"/>
<path d="M42.4015 74.9346C43.8402 76.7977 45.3376 78.4132 47.0508 80.066C43.8056 82.2697 40.3046 83.4327 36.6224 84.1167C23.5481 86.552 13.9403 81.0055 6.63716 70.7295C-5.8136 53.2116 -0.109114 27.366 18.4165 17.5718C27.4888 12.7731 36.9528 12.0705 46.2942 16.9596C52.4702 20.1907 56.1391 25.3726 57.0317 32.3882C57.4553 35.7204 56.9171 38.9168 55.561 41.9429C52.8299 48.043 48.0127 51.9155 41.9032 54.4812C40.7149 52.674 39.5665 50.9254 38.4075 49.1635C38.7459 48.6232 39.3854 48.6179 39.8943 48.397C43.2461 46.9465 46.1663 44.9424 48.2898 41.9136C52.6701 35.6672 50.9062 27.2223 44.4477 23.1422C40.0248 20.3503 35.1969 19.8074 30.1559 20.4089C18.1341 21.8461 8.65678 32.0342 6.91426 44.5725C5.49147 54.8032 8.21715 63.9134 15.499 71.3975C22.6236 78.7193 32.5592 80.1352 41.5941 75.3285C41.8206 75.2088 42.0551 75.1023 42.4015 74.9346Z"/>
<path d="M74.3103 13.7525C71.6193 13.2415 69.0482 12.2674 66.3571 12.2754C57.3141 3.35943 40.0461 3.30354 30.8912 12.2435C28.2108 12.3339 25.5997 13.1563 22.93 13.8962C25.669 7.30907 37.3711 0.860303 46.891 0.615447C58.2786 0.322684 67.5987 4.30692 74.3103 13.7525Z"/>
<path d="M23.9158 85.7935C26.3911 86.1501 28.8317 86.4855 31.2483 86.3497C40.27 94.6376 56.6534 94.8398 65.9228 86.3604C68.3421 86.4668 70.7854 86.1448 73.2686 85.7855C67.1138 93.706 58.8862 97.4907 49.0065 97.5971C38.8152 97.7063 30.3051 93.9429 23.9158 85.7935Z"/>
<path d="M69.3412 41.006V49.0011C62.6429 55.7027 60.0558 64.9301 54.3886 72.3396C52.5102 70.9503 51.1194 69.263 49.6886 67.384C54.7163 60.6265 57.6232 52.5303 63.2477 46.14C64.9849 44.1679 66.882 42.3874 69.3439 41.006H69.3412Z"/>
<path d="M71.3102 48.0244V23.435C73.6283 24.0684 75.6132 25.1437 77.4064 26.7246C77.4064 32.2578 77.4064 37.7884 77.4064 43.3163C77.4064 44.0934 77.044 44.7295 76.5618 45.307C75.3974 46.6963 73.0714 47.9233 71.3129 48.0218L71.3102 48.0244Z"/>
<path d="M19.8313 26.7033C21.5898 25.1091 23.5801 24.127 25.8529 23.4243V48.0377C22.2959 47.7849 19.8313 45.2165 19.8313 41.8524C19.8313 36.7956 19.8313 31.7415 19.8313 26.706V26.7033Z"/>
<path d="M65.6137 56.9483C67.0658 54.2842 68.6325 52.2056 70.4017 50.2654C70.7854 49.8448 71.3529 49.8422 71.8431 49.6878C74.5821 48.8228 76.8575 47.2526 78.7066 45.0994C80.4332 43.0873 80.4198 41.6901 78.8452 39.6487C82.3435 39.5077 85.357 43.766 84.2619 47.3031C83.9928 48.1681 83.5878 48.9745 82.991 49.6426C78.4668 54.7154 72.6877 56.8392 65.6137 56.9483Z"/>
<path d="M18.4831 39.5343C16.8152 41.6289 16.7565 42.949 18.4005 44.9691C20.1963 47.1728 22.461 48.8415 25.1627 49.7278C26.5136 50.1722 27.4568 50.9254 28.2428 52.0113C29.3139 53.4911 30.4649 54.923 31.2349 56.7488C29.7269 57.1054 28.3414 56.8579 26.9692 56.6184C22.5516 55.8439 18.6669 53.9702 15.3684 50.9228C14.5504 50.1669 13.855 49.3046 13.3514 48.3065C11.4544 44.5485 14.0468 39.9655 18.4831 39.5343Z"/>
<path d="M43.0062 24.3479C44.9219 25.4098 46.3847 26.9162 47.5437 28.8351C46.001 32.5772 45.9291 36.3032 47.6263 40.0479C46.5206 41.9988 44.9619 43.5212 43.1661 44.8386C38.9883 39.521 38.9084 29.4526 43.0062 24.3479Z"/>
<path d="M71.3209 58.0023C73.3512 57.4301 75.2935 56.6716 77.3291 55.7613V72.3424C75.6585 73.705 73.7029 74.735 71.3209 75.2647V58.0023Z"/>
<path d="M25.8449 75.2593C23.5082 74.7244 21.6378 73.7183 19.8873 72.3663V55.7879C21.8723 56.5917 23.756 57.4514 25.8449 57.9703V75.262V75.2593Z"/>
<path d="M54.2874 47.029C55.7768 47.6997 57.101 48.2959 58.5584 48.9533C57.45 50.7684 56.371 52.5356 55.2359 54.3933C53.3202 53.7839 51.6203 52.8177 49.8352 51.6493C51.4605 50.2015 52.9845 48.7803 54.2847 47.029H54.2874Z"/>
</svg>
