<svg width="87" height="86" viewBox="0 0 87 86" fill="none" xmlns="http://www.w3.org/2000/svg">
<path d="M15.4063 0.360352H71.5938C80.1125 0.360352 87 7.24785 87 15.7666V69.7791C87 78.2978 80.1125 85.1853 71.5938 85.1853H15.4063C6.8875 85.1853 0 78.2978 0 69.7791V15.7666C0 7.24785 6.8875 0.360352 15.4063 0.360352Z" fill="#001E36"/>
<path d="M19.575 59.8466V22.5454C19.575 22.2916 19.6838 22.1466 19.9375 22.1466C20.5538 22.1466 21.1338 22.1466 21.9675 22.1104C22.8375 22.0741 23.7437 22.0741 24.7225 22.0379C25.7012 22.0016 26.7525 22.0016 27.8763 21.9653C29 21.9291 30.0875 21.9291 31.175 21.9291C34.1475 21.9291 36.6125 22.2916 38.6425 23.0528C40.455 23.6691 42.1225 24.6841 43.5 26.0254C44.66 27.1854 45.5663 28.5991 46.1463 30.1578C46.69 31.6803 46.98 33.2391 46.98 34.8703C46.98 37.9878 46.255 40.5616 44.805 42.5916C43.355 44.6216 41.325 46.1441 38.9688 47.0141C36.5038 47.9203 33.785 48.2466 30.8125 48.2466C29.9425 48.2466 29.3625 48.2466 29 48.2103C28.6375 48.1741 28.13 48.1741 27.4412 48.1741V59.8103C27.4775 60.0641 27.2963 60.2816 27.0425 60.3178C27.0063 60.3178 26.97 60.3178 26.8975 60.3178H20.01C19.72 60.3178 19.575 60.1729 19.575 59.8466ZM27.4775 29.1429V41.3228C27.985 41.3591 28.4562 41.3953 28.8912 41.3953H30.8125C32.2263 41.3953 33.64 41.1779 34.9813 40.7429C36.1413 40.4166 37.1563 39.7278 37.9538 38.8216C38.715 37.9153 39.0775 36.6829 39.0775 35.0879C39.1138 33.9641 38.8238 32.8404 38.2438 31.8616C37.6275 30.9191 36.7575 30.1941 35.7063 29.7953C34.365 29.2516 32.915 29.0341 31.4287 29.0703C30.4862 29.0703 29.6525 29.0704 28.9638 29.1066C28.2388 29.0704 27.7313 29.1066 27.4775 29.1429Z" fill="#31A8FF"/>
<path d="M69.6 39.1116C68.5125 38.5316 67.3525 38.1328 66.12 37.8791C64.7787 37.5891 63.4375 37.4078 62.06 37.4078C61.335 37.3716 60.5738 37.4804 59.885 37.6616C59.4138 37.7704 59.015 38.0241 58.7613 38.3866C58.58 38.6766 58.4713 39.0391 58.4713 39.3653C58.4713 39.6916 58.6163 40.0178 58.8338 40.3078C59.16 40.7066 59.595 41.0329 60.0663 41.2866C60.9 41.7216 61.77 42.1203 62.64 42.4828C64.5975 43.1353 66.4825 44.0416 68.2225 45.1291C69.4188 45.8903 70.3975 46.9054 71.0863 48.1379C71.6663 49.2979 71.9563 50.5666 71.92 51.8716C71.9563 53.5754 71.4488 55.2791 70.5063 56.6928C69.4913 58.1428 68.0775 59.2666 66.4463 59.9191C64.67 60.6803 62.495 61.0791 59.885 61.0791C58.2175 61.0791 56.5863 60.9341 54.955 60.6078C53.6863 60.3903 52.4175 59.9916 51.2575 59.4478C51.0037 59.3028 50.8225 59.0491 50.8588 58.7591V52.4516C50.8588 52.3428 50.895 52.1979 51.0038 52.1254C51.1125 52.0529 51.2213 52.0891 51.33 52.1616C52.7438 52.9953 54.23 53.5754 55.825 53.9379C57.2025 54.3004 58.6525 54.4816 60.1025 54.4816C61.48 54.4816 62.4588 54.3003 63.1113 53.9741C63.6913 53.7203 64.09 53.1041 64.09 52.4516C64.09 51.9441 63.8 51.4728 63.22 51.0016C62.64 50.5303 61.4438 49.9866 59.6675 49.2978C57.8188 48.6453 56.115 47.7754 54.52 46.6879C53.3962 45.8904 52.4538 44.8391 51.765 43.6066C51.185 42.4466 50.895 41.1778 50.9313 39.9091C50.9313 38.3503 51.3662 36.8641 52.1637 35.5228C53.07 34.0728 54.4112 32.9129 55.97 32.1879C57.6737 31.3179 59.8125 30.9191 62.3863 30.9191C63.8725 30.9191 65.395 31.0278 66.8813 31.2453C67.9688 31.3903 69.02 31.6804 69.9988 32.0791C70.1438 32.1153 70.2888 32.2604 70.3613 32.4054C70.3975 32.5504 70.4338 32.6953 70.4338 32.8403V38.7491C70.4338 38.8941 70.3613 39.0391 70.2525 39.1116C69.9263 39.1841 69.745 39.1841 69.6 39.1116Z" fill="#31A8FF"/>
</svg>
