<svg width="90" height="91" viewBox="0 0 90 91" fill="currentColor" xmlns="http://www.w3.org/2000/svg">
<path d="M45 0.872925C20.1477 0.872925 0 21.02 0 45.8721C0 70.7269 20.1477 90.8729 45 90.8729C69.8534 90.8729 90 70.727 90 45.8721C90 21.0216 69.8544 0.875073 44.9995 0.875073L45 0.872925ZM65.6367 65.7747C64.8285 67.1003 63.1014 67.5157 61.7801 66.708C51.2129 60.2496 37.9122 58.7906 22.2482 62.3689C20.7388 62.715 19.2342 61.7687 18.8903 60.2598C18.5448 58.7504 19.4867 57.2458 20.9999 56.9019C38.1417 52.9829 52.8454 54.6697 64.7065 61.9175C66.0284 62.729 66.4475 64.4539 65.6362 65.7757L65.6367 65.7747ZM71.1446 53.5235C70.1269 55.1748 67.9678 55.6928 66.3186 54.6788C54.2254 47.2451 35.7848 45.0919 21.4777 49.4348C19.6222 49.9953 17.6624 48.9496 17.0993 47.0973C16.5404 45.2418 17.5867 43.2858 19.4389 42.7216C35.7816 37.7629 56.098 40.1649 69.9887 48.7008C71.6385 49.7164 72.1597 51.8766 71.1441 53.5241L71.1446 53.5235ZM71.6175 40.7646C57.112 32.1502 33.1856 31.3582 19.3384 35.5608C17.1148 36.2352 14.7633 34.9799 14.0895 32.7563C13.4156 30.5317 14.6698 28.1818 16.895 27.5058C32.7906 22.6804 59.2153 23.6127 75.9131 33.5253C77.9132 34.7123 78.5693 37.2954 77.3839 39.2927C76.2017 41.2928 73.6116 41.9521 71.618 40.7646H71.6175Z" />
</svg>
