<svg width="336" height="118" viewBox="0 0 336 118" fill="none" xmlns="http://www.w3.org/2000/svg">
<path d="M106.522 37.649H121.376V58.1317H121.555C124.062 53.7927 129.071 52.0571 134.351 52.0571C139.094 52.0571 144.728 53.7055 147.86 57.3511C152.065 62.1263 152.511 66.378 152.511 74.9686V101.87H137.657V75.6574C137.657 73.3157 137.657 65.5928 129.696 65.5928C121.734 65.5928 121.376 72.7969 121.376 75.1385V101.87H106.522V37.649Z" fill="white"/>
<path d="M210.942 86.7688C208.527 92.15 205.037 96.3145 200.832 99.0969C196.718 101.962 191.796 103.436 186.694 103.436C172.47 103.436 160.39 92.2418 160.39 77.921C160.39 64.4679 171.304 52.0571 186.428 52.0571C201.552 52.0571 212.641 63.6874 212.641 78.3526C212.641 80.2626 212.462 81.0432 212.283 82.1727H175.064C175.959 87.9029 180.882 91.2868 186.694 91.2868C191.258 91.2868 193.673 89.2895 195.73 86.7733H210.942V86.7688ZM197.787 72.4525C197.163 69.5874 194.206 64.2062 186.515 64.2062C178.825 64.2062 175.868 69.5874 175.243 72.4525H197.792H197.787Z" fill="white"/>
<path d="M220.883 37.649H235.736V101.875H220.883V37.649Z" fill="white"/>
<path d="M260.429 53.7055V58.9995H260.695C263.648 55.3538 268.57 52.0571 276.173 52.0571C293.8 52.0571 300.421 67.0713 300.421 78.2653C300.421 92.1546 290.398 103.523 276.26 103.523C267.316 103.523 263.111 99.3586 261.32 97.5358V117.931H246.466V53.7055H260.429ZM285.572 77.8337C285.572 72.1035 281.279 65.5102 273.134 65.5102C264.988 65.5102 260.695 72.1035 260.695 77.8337C260.695 83.9083 265.347 90.07 273.134 90.07C280.921 90.07 285.572 83.9083 285.572 77.8337Z" fill="white"/>
<path d="M308.754 53.7055H322.713V58.825H322.892C324.145 56.4787 326.739 52.0525 335.33 52.0525V66.5479C328.443 66.7223 323.608 68.1136 323.608 75.4002V101.87H308.754V53.7055Z" fill="white"/>
<path d="M74.9985 111.764V76.1683C74.9985 57.0669 59.5367 41.582 40.4638 41.582V112.729C40.4638 115.652 42.8408 118.017 45.7597 117.998L69.7134 117.848C72.5534 117.829 74.8947 115.575 74.9845 112.73C74.9954 112.409 75 112.087 75 111.764H74.9985Z" fill="white"/>
<path d="M33.412 117.998C34.0329 117.998 34.5362 117.494 34.5362 116.873V34.0544C34.5346 15.2461 19.3113 0 0.532684 0H0V84.538C0 103.018 14.9585 118 33.412 118V117.998Z" fill="white"/>
</svg>
