<svg width="527" height="93" viewBox="0 0 527 93" fill="none" xmlns="http://www.w3.org/2000/svg">
<path d="M263.45 2.10008C261.604 0.187742 258.81 0.573028 257.731 1.59739C257.731 1.59739 222.267 35.2623 207.301 49.47V3.74028C207.301 2.36122 205.772 0 203.009 0C200.34 0 198.688 2.26948 198.688 3.75067V88.1155C198.688 89.4077 200.34 91.7744 202.923 91.7744C205.61 91.7744 207.301 89.5147 207.301 88.1161V61.2951C213.301 55.5984 263.694 7.76188 263.694 7.76188C264.697 6.80724 265.361 4.07969 263.45 2.10008Z" fill="white"/>
<path d="M179.527 1.88359C177.681 -0.0293536 174.887 0.356535 173.808 1.38089C173.808 1.38089 138.239 35.2036 123.247 49.4602V3.73966C123.247 2.36121 121.72 0.000606555 118.956 0.000606555C116.287 0.000606555 114.635 2.27009 114.635 3.75067V88.1155C114.635 89.4071 116.287 91.7738 118.87 91.7738C121.558 91.7738 123.247 89.5141 123.247 88.1161V61.2945C129.254 55.5837 179.772 7.54477 179.772 7.54477C180.775 6.59135 181.438 3.86381 179.527 1.88359Z" fill="white"/>
<path d="M147.084 47.1871C149.298 45.5463 151.947 46.5315 152.778 47.6353C152.778 47.6353 181.378 85.4736 181.915 86.1873C182.758 87.3076 182.767 90.1208 180.613 91.7163C178.544 93.2495 175.793 92.3334 175.014 91.2993C174.596 90.7446 145.884 52.7559 145.884 52.7559C144.99 51.5701 144.945 48.7716 147.084 47.1871Z" fill="white"/>
<path d="M231.704 47.1871C233.919 45.5463 236.567 46.5315 237.398 47.6353C237.398 47.6353 265.998 85.4736 266.535 86.1873C267.379 87.3076 267.387 90.1208 265.234 91.7163C263.163 93.2495 260.413 92.3334 259.635 91.2993C259.217 90.7446 230.504 52.7559 230.504 52.7559C229.611 51.5701 229.566 48.7716 231.704 47.1871Z" fill="white"/>
<path d="M38.4277 9.16417C21.3805 13.0598 8.63059 28.238 8.63059 46.315C8.63059 67.336 25.869 84.4382 47.0577 84.4382C68.2464 84.4382 85.4848 67.336 85.4842 46.315C85.4848 28.32 72.8502 13.198 55.9201 9.21859C55.5779 9.13787 54.7383 8.94401 54.7383 8.94401C53.2785 8.63578 51.3841 6.56078 51.9389 3.97145C52.5141 1.28977 55.1594 0.297208 56.5187 0.58464L57.7307 0.844553C78.5538 5.65322 94.1154 24.2152 94.1148 46.315C94.1154 72.0579 73.005 93 47.0577 93C21.1098 93 0 72.0579 0 46.315C0 24.1791 15.6127 5.59146 36.4883 0.820095C36.8958 0.727138 37.9654 0.511256 37.9654 0.511256C39.4264 0.209147 42.0026 1.35092 42.5457 3.94392C43.1086 6.62743 41.0896 8.59175 39.7297 8.87245C39.7297 8.87245 38.9271 9.04981 38.4277 9.16417Z" fill="white"/>
<path d="M330.639 84.2988C347.687 80.4032 360.437 65.2256 360.437 47.1479C360.437 26.1269 343.199 9.02535 322.01 9.02535C300.821 9.02535 283.583 26.1269 283.583 47.1479C283.583 65.143 296.217 80.2656 313.147 84.245C313.489 84.3251 314.329 84.5196 314.329 84.5196C315.788 84.8278 317.684 86.9022 317.129 89.4921C316.553 92.1732 313.908 93.1657 312.548 92.8789L311.336 92.619C290.513 87.8103 274.952 69.2484 274.952 47.1479C274.952 21.4057 296.063 0.463557 322.01 0.463557C347.957 0.463557 369.068 21.4057 369.068 47.1479C369.068 69.2845 353.455 87.8715 332.579 92.6435C332.172 92.7358 331.102 92.9523 331.102 92.9523C329.641 93.2544 327.064 92.1126 326.521 89.5196C325.959 86.8361 327.977 84.8718 329.338 84.5911C329.338 84.5911 330.139 84.4137 330.639 84.2988Z" fill="white"/>
<path d="M384.19 44.3819V32.4883H382.391V60.5123H384.19V46.0539H401.349V60.5123H403.147V32.4883H401.349V44.3819H384.19ZM425.551 32.1165C417.571 32.1165 410.902 38.621 410.902 46.5003C410.902 54.3796 417.608 60.8835 425.551 60.8835C433.494 60.8835 440.2 54.3796 440.2 46.5003C440.2 38.621 433.494 32.1165 425.551 32.1165ZM425.551 33.7891C432.557 33.7891 438.401 39.5873 438.401 46.5003C438.401 53.376 432.557 59.2115 425.551 59.2115C418.507 59.2115 412.7 53.4133 412.7 46.5003C412.7 39.5873 418.507 33.7891 425.551 33.7891ZM453.314 34.1609H460.621V32.4883H444.211V34.1609H451.517V60.5123H453.314V34.1609ZM481.673 34.1609V32.4883H468.186V60.5123H481.673V58.8397H469.984V46.0172H481.374V44.3439H469.984V34.1609H481.673ZM493.284 32.4883H491.486V60.5123H505.279V58.8397H493.284V32.4883ZM525.614 36.0568C524.265 33.6405 521.567 32.1165 518.72 32.1165C514.487 32.1165 511.49 35.0532 511.49 39.2154C511.49 41.4452 512.538 43.0811 514.412 44.2333L519.507 46.9094C521.943 48.0983 525.202 49.4364 525.202 52.5957C525.202 56.3121 521.943 59.2115 518.233 59.2115C514.824 59.2115 512.613 57.1304 511.414 54.1564L509.841 54.8627C511.152 58.4672 514.224 60.8835 518.159 60.8835C522.729 60.8835 527 57.3903 527 52.7443C527 50.2174 525.914 48.5074 523.778 47.1694L518.382 44.3819C516.097 43.3037 513.288 42.0769 513.288 39.1414C513.288 36.2054 515.574 33.7891 518.607 33.7891C521.268 33.7891 523.066 35.0899 524.34 37.097L525.614 36.0568Z" fill="#AFAFAF"/>
</svg>
