<svg width="616" height="111" viewBox="0 0 616 111" fill="none" xmlns="http://www.w3.org/2000/svg">
<path d="M171.475 95.8273C166.639 95.8273 162.271 95.1284 158.371 93.7306C154.471 92.3329 151.429 90.5469 149.167 88.4503C146.905 86.3537 145.735 84.257 145.735 82.0827C145.735 81.0732 146.047 79.9085 146.593 78.666C147.139 77.4236 147.919 76.4141 148.855 75.5599C149.791 74.7057 150.883 74.3175 152.053 74.3175C153.223 74.3175 154.315 74.7057 155.407 75.5599C156.421 76.4141 157.669 77.4236 158.995 78.5884C160.321 79.7532 161.959 80.7626 163.909 81.6168C165.859 82.471 168.199 82.8593 171.007 82.8593C173.269 82.8593 175.298 82.471 177.17 81.7721C179.042 81.0733 180.602 79.9861 181.694 78.5884C182.864 77.1906 183.41 75.4046 183.41 73.1527C183.41 70.8231 182.786 68.8041 181.538 67.1734C180.29 65.5427 178.574 64.145 176.39 62.9802C174.205 61.8154 171.865 60.6506 169.369 59.5634C166.873 58.4763 164.299 57.3115 161.725 55.9914C159.151 54.749 156.811 53.1959 154.705 51.4876C152.599 49.7792 150.883 47.5273 149.557 44.9647C148.231 42.4022 147.607 39.2184 147.607 35.4135C147.607 31.2979 148.387 27.8035 150.025 25.008C151.585 22.2125 153.769 19.9606 156.343 18.1746C158.995 16.4662 161.881 15.1461 165.079 14.4472C168.277 13.6707 171.475 13.2824 174.674 13.2824C176.39 13.2824 178.418 13.4377 180.758 13.6707C183.098 13.9037 185.438 14.3696 187.778 15.0684C190.118 15.7673 192.068 16.6215 193.55 17.7863C195.032 18.9511 195.812 20.4265 195.812 22.2902C195.812 23.0667 195.578 24.0762 195.188 25.3186C194.798 26.4834 194.174 27.5705 193.316 28.5024C192.458 29.4342 191.366 29.9778 190.04 29.9778C188.87 29.9778 187.7 29.5895 186.53 28.8906C185.36 28.1918 183.878 27.4929 182.084 26.794C180.29 26.0951 177.794 25.7069 174.674 25.7069C172.099 25.7069 169.837 26.0175 167.887 26.7164C165.937 27.4152 164.533 28.3471 163.519 29.5119C162.583 30.7543 162.037 32.2297 162.037 34.0934C162.037 36.0347 162.661 37.6654 163.987 38.9855C165.313 40.3056 167.029 41.4704 169.135 42.5575C171.241 43.567 173.581 44.6541 176.077 45.6636C178.574 46.6731 181.148 47.9156 183.722 49.2356C186.296 50.6334 188.636 52.2641 190.82 54.1278C193.004 56.0691 194.642 58.3987 195.968 61.2718C197.216 64.145 197.84 67.6393 197.84 71.7549C197.84 77.0353 196.67 81.3839 194.408 84.9559C192.146 88.5279 188.948 91.2458 184.97 93.0318C181.07 94.9731 176.546 95.8273 171.475 95.8273Z" fill="white"/>
<path d="M230.21 94.8178C228.338 94.8178 226.7 94.4296 225.218 93.653C223.736 92.8765 222.956 91.7117 222.956 90.1587V26.794H206.576C205.172 26.794 204.08 26.0952 203.222 24.7751C202.442 23.455 201.974 21.9019 201.974 20.2712C201.974 18.7182 202.364 17.2428 203.066 15.9227C203.768 14.5249 204.938 13.9037 206.498 13.9037H253.532C255.17 13.9037 256.34 14.6026 257.042 15.9227C257.744 17.3204 258.134 18.7182 258.134 20.2712C258.134 21.9796 257.744 23.455 256.964 24.7751C256.184 26.0952 255.092 26.794 253.532 26.794H237.386V90.1587C237.386 91.7117 236.606 92.8765 235.124 93.653C233.642 94.4296 232.004 94.8178 230.21 94.8178Z" fill="white"/>
<path d="M262.58 94.8178C261.254 94.8178 259.85 94.5849 258.446 94.0413C257.042 93.4977 255.872 92.7989 254.858 91.9447C253.922 91.0905 253.376 90.0033 253.376 88.8386C253.376 88.6056 253.376 88.2173 253.454 87.7514L275.06 18.0969C275.606 16.4662 276.776 15.2238 278.57 14.4473C280.364 13.6707 282.314 13.2048 284.42 13.2048C286.604 13.2048 288.554 13.5931 290.348 14.4473C292.142 15.2238 293.312 16.4662 293.78 18.0969L315.23 87.7514C315.386 88.295 315.464 88.6056 315.464 88.8386C315.464 89.9257 314.996 90.9352 313.982 91.867C312.968 92.7988 311.798 93.4977 310.394 94.0413C308.99 94.5849 307.586 94.8178 306.26 94.8178C305.09 94.8178 304.076 94.5849 303.218 94.1966C302.36 93.8083 301.814 93.0318 301.502 91.9447L297.29 77.1906H271.706L267.572 91.9447C267.26 93.0318 266.714 93.8083 265.778 94.1966C264.764 94.6625 263.75 94.8178 262.58 94.8178ZM274.67 65.931H294.014L284.342 31.9191L274.67 65.931Z" fill="white"/>
<path d="M338.63 94.8178C336.758 94.8178 335.12 94.4296 333.638 93.653C332.156 92.8765 331.376 91.7117 331.376 90.1587V26.794H314.996C313.592 26.794 312.5 26.0952 311.642 24.7751C310.862 23.455 310.394 21.9019 310.394 20.2712C310.394 18.7182 310.784 17.2428 311.486 15.9227C312.188 14.5249 313.358 13.9037 314.918 13.9037H361.953C363.591 13.9037 364.761 14.6026 365.463 15.9227C366.165 17.3204 366.555 18.7182 366.555 20.2712C366.555 21.9796 366.165 23.455 365.385 24.7751C364.605 26.0952 363.513 26.794 361.953 26.794H345.728V90.1587C345.728 91.7117 344.948 92.8765 343.466 93.653C342.062 94.4296 340.424 94.8178 338.63 94.8178Z" fill="white"/>
<path d="M395.259 95.8273C390.423 95.8273 386.055 95.1284 382.155 93.7306C378.255 92.3329 375.213 90.5469 372.951 88.4503C370.689 86.3537 369.519 84.257 369.519 82.0827C369.519 81.0732 369.831 79.9085 370.377 78.666C370.923 77.4236 371.703 76.4141 372.639 75.5599C373.575 74.7057 374.667 74.3175 375.837 74.3175C377.007 74.3175 378.099 74.7057 379.191 75.5599C380.205 76.4141 381.453 77.4236 382.779 78.5884C384.105 79.7532 385.743 80.7626 387.693 81.6168C389.643 82.471 391.983 82.8593 394.791 82.8593C397.053 82.8593 399.081 82.471 400.953 81.7721C402.825 81.0733 404.385 79.9861 405.477 78.5884C406.647 77.1906 407.193 75.4046 407.193 73.1527C407.193 70.8231 406.569 68.8041 405.321 67.1734C404.073 65.5427 402.357 64.145 400.173 62.9802C397.989 61.8154 395.649 60.6506 393.153 59.5634C390.657 58.4763 388.083 57.3115 385.509 55.9914C382.935 54.749 380.595 53.1959 378.489 51.4876C376.383 49.7792 374.667 47.5273 373.341 44.9647C372.015 42.4022 371.391 39.2184 371.391 35.4135C371.391 31.2979 372.171 27.8035 373.809 25.008C375.369 22.2125 377.553 19.9606 380.127 18.1746C382.779 16.4662 385.665 15.1461 388.863 14.4472C392.061 13.6707 395.259 13.2824 398.457 13.2824C400.173 13.2824 402.201 13.4377 404.541 13.6707C406.881 13.9037 409.221 14.3696 411.561 15.0684C413.901 15.7673 415.851 16.6215 417.333 17.7863C418.815 18.9511 419.595 20.4265 419.595 22.2902C419.595 23.0667 419.361 24.0762 418.971 25.3186C418.581 26.4834 417.957 27.5705 417.099 28.5024C416.241 29.4342 415.149 29.9778 413.823 29.9778C412.653 29.9778 411.483 29.5895 410.313 28.8906C409.143 28.1918 407.661 27.4929 405.867 26.794C404.073 26.0951 401.577 25.7069 398.457 25.7069C395.883 25.7069 393.621 26.0175 391.671 26.7164C389.721 27.4152 388.317 28.3471 387.303 29.5119C386.367 30.7543 385.821 32.2297 385.821 34.0934C385.821 36.0347 386.445 37.6654 387.771 38.9855C389.097 40.3056 390.813 41.4704 392.919 42.5575C395.025 43.567 397.365 44.6541 399.861 45.6636C402.357 46.6731 404.931 47.9156 407.505 49.2356C410.079 50.6334 412.419 52.2641 414.603 54.1278C416.787 56.0691 418.425 58.3987 419.751 61.2718C420.999 64.145 421.623 67.6393 421.623 71.7549C421.623 77.0353 420.453 81.3839 418.191 84.9559C415.929 88.5279 412.731 91.2458 408.753 93.0318C404.931 94.9731 400.407 95.8273 395.259 95.8273Z" fill="white"/>
<path d="M439.017 94.8178C437.145 94.8178 435.507 94.4296 433.947 93.6531C432.387 92.8765 431.685 91.7117 431.685 90.1587V18.4076C431.685 16.7769 432.465 15.6121 433.947 14.9132C435.429 14.2143 437.145 13.8261 439.017 13.8261C440.811 13.8261 442.449 14.2143 443.931 14.9132C445.413 15.6121 446.193 16.7769 446.193 18.4076V47.2167H471.231V18.4076C471.231 16.7769 472.011 15.6121 473.493 14.9132C474.975 14.2143 476.691 13.8261 478.563 13.8261C480.357 13.8261 481.995 14.2143 483.477 14.9132C484.959 15.6121 485.739 16.7769 485.739 18.4076V90.1587C485.739 91.7117 484.959 92.8765 483.477 93.6531C481.995 94.4296 480.357 94.8178 478.563 94.8178C476.691 94.8178 475.053 94.4296 473.493 93.6531C472.011 92.8765 471.231 91.7117 471.231 90.1587V58.4764H446.193V90.1587C446.193 91.7117 445.413 92.8765 443.931 93.6531C442.449 94.4296 440.811 94.8178 439.017 94.8178Z" fill="white"/>
<path d="M524.349 95.5167C519.435 95.5167 515.067 94.6625 511.089 93.0318C507.189 91.4011 503.991 88.6833 501.651 84.9559C499.311 81.2286 498.141 76.2588 498.141 70.0466V39.3738C498.141 33.1616 499.311 28.1918 501.651 24.4645C503.991 20.7371 507.111 18.0193 511.089 16.3886C514.989 14.7579 519.435 13.9037 524.349 13.9037C529.264 13.9037 533.71 14.7579 537.61 16.3886C541.588 18.0193 544.708 20.7371 547.048 24.4645C549.31 28.1918 550.48 33.1616 550.48 39.3738V70.0466C550.48 76.2588 549.31 81.2286 547.048 84.9559C544.786 88.6833 541.588 91.4011 537.61 93.0318C533.632 94.6625 529.264 95.5167 524.349 95.5167ZM524.349 82.8593C528.016 82.8593 530.824 81.8498 532.93 79.7532C535.036 77.6566 536.05 74.4728 536.05 69.969V39.2961C536.05 34.8699 535.036 31.6085 532.93 29.5119C530.824 27.4153 528.016 26.4058 524.349 26.4058C520.683 26.4058 517.875 27.4153 515.847 29.5119C513.819 31.6085 512.805 34.7923 512.805 39.2961V69.969C512.805 74.3952 513.819 77.6566 515.847 79.7532C517.875 81.8498 520.683 82.8593 524.349 82.8593Z" fill="white"/>
<path d="M570.292 94.8178C568.42 94.8178 566.782 94.4296 565.222 93.653C563.662 92.8765 562.96 91.7117 562.96 90.1587V18.4076C562.96 17.1651 563.506 16.078 564.52 15.2238C565.534 14.3696 566.86 13.9037 568.498 13.9037H590.728C595.486 13.9037 599.776 14.6802 603.598 16.3109C607.42 17.9416 610.462 20.5818 612.646 24.2315C614.908 27.8812 616 32.7733 616 38.8302V39.5291C616 45.586 614.83 50.4781 612.568 54.1278C610.306 57.8551 607.108 60.4953 603.13 62.126C599.152 63.7567 594.706 64.6109 589.87 64.6109H577.39V90.1587C577.39 91.7117 576.61 92.8765 575.128 93.653C573.724 94.4296 572.086 94.8178 570.292 94.8178ZM577.39 53.3513H589.87C593.536 53.3513 596.344 52.3418 598.45 50.2452C600.556 48.1485 601.57 44.9648 601.57 40.6162V39.3738C601.57 35.0252 600.556 31.7638 598.45 29.6672C596.344 27.5706 593.536 26.4834 589.87 26.4834H577.39V53.3513Z" fill="white"/>
<path d="M76.003 87.6738L23.8207 109.96C17.1906 112.756 9.5466 109.727 6.66059 103.127L1.04456 90.081C-1.76346 83.4805 1.27856 75.8706 7.9086 72.9974L72.025 45.586L82.789 70.5902C85.675 77.1907 82.633 84.8783 76.003 87.6738Z" fill="url(#paint0_linear_28_511)"/>
<path d="M76.003 87.6738L23.8207 109.96C17.1906 112.756 9.5466 109.727 6.66059 103.127L1.04456 90.081C-1.76346 83.4805 1.27856 75.8706 7.9086 72.9974L72.025 45.586L82.789 70.5902C85.675 77.1907 82.633 84.8783 76.003 87.6738Z" fill="black"/>
<path d="M76.003 87.6738L23.8207 109.96C17.1906 112.756 9.5466 109.727 6.66059 103.127L1.04456 90.081C-1.76346 83.4805 1.27856 75.8706 7.9086 72.9974L72.025 45.586L82.789 70.5902C85.675 77.1907 82.633 84.8783 76.003 87.6738Z" fill="#FFF5F5"/>
<path d="M90.433 37.976L25.6147 65.698L14.5386 40.0726C11.8086 33.8604 14.7726 26.561 21.0126 23.9208L74.4429 1.0133C80.683 -1.70455 88.015 1.24626 90.667 7.45847L96.8291 21.8242C99.5591 28.0364 96.6731 35.3358 90.433 37.976Z" fill="url(#paint1_linear_28_511)"/>
<path d="M171.475 95.8273C166.639 95.8273 162.271 95.1284 158.371 93.7306C154.471 92.3329 151.429 90.5469 149.167 88.4503C146.905 86.3537 145.735 84.257 145.735 82.0827C145.735 81.0732 146.047 79.9085 146.593 78.666C147.139 77.4236 147.919 76.4141 148.855 75.5599C149.791 74.7057 150.883 74.3175 152.053 74.3175C153.223 74.3175 154.315 74.7057 155.407 75.5599C156.421 76.4141 157.669 77.4236 158.995 78.5884C160.321 79.7532 161.959 80.7626 163.909 81.6168C165.859 82.471 168.199 82.8593 171.007 82.8593C173.269 82.8593 175.298 82.471 177.17 81.7721C179.042 81.0733 180.602 79.9861 181.694 78.5884C182.864 77.1906 183.41 75.4046 183.41 73.1527C183.41 70.8231 182.786 68.8041 181.538 67.1734C180.29 65.5427 178.574 64.145 176.39 62.9802C174.205 61.8154 171.865 60.6506 169.369 59.5634C166.873 58.4763 164.299 57.3115 161.725 55.9914C159.151 54.749 156.811 53.1959 154.705 51.4876C152.599 49.7792 150.883 47.5273 149.557 44.9647C148.231 42.4022 147.607 39.2184 147.607 35.4135C147.607 31.2979 148.387 27.8035 150.025 25.008C151.585 22.2125 153.769 19.9606 156.343 18.1746C158.995 16.4662 161.881 15.1461 165.079 14.4472C168.277 13.6707 171.475 13.2824 174.674 13.2824C176.39 13.2824 178.418 13.4377 180.758 13.6707C183.098 13.9037 185.438 14.3696 187.778 15.0684C190.118 15.7673 192.068 16.6215 193.55 17.7863C195.032 18.9511 195.812 20.4265 195.812 22.2902C195.812 23.0667 195.578 24.0762 195.188 25.3186C194.798 26.4834 194.174 27.5705 193.316 28.5024C192.458 29.4342 191.366 29.9778 190.04 29.9778C188.87 29.9778 187.7 29.5895 186.53 28.8906C185.36 28.1918 183.878 27.4929 182.084 26.794C180.29 26.0951 177.794 25.7069 174.674 25.7069C172.099 25.7069 169.837 26.0175 167.887 26.7164C165.937 27.4152 164.533 28.3471 163.519 29.5119C162.583 30.7543 162.037 32.2297 162.037 34.0934C162.037 36.0347 162.661 37.6654 163.987 38.9855C165.313 40.3056 167.029 41.4704 169.135 42.5575C171.241 43.567 173.581 44.6541 176.077 45.6636C178.574 46.6731 181.148 47.9156 183.722 49.2356C186.296 50.6334 188.636 52.2641 190.82 54.1278C193.004 56.0691 194.642 58.3987 195.968 61.2718C197.216 64.145 197.84 67.6393 197.84 71.7549C197.84 77.0353 196.67 81.3839 194.408 84.9559C192.146 88.5279 188.948 91.2458 184.97 93.0318C181.07 94.9731 176.546 95.8273 171.475 95.8273Z" fill="white"/>
<path d="M230.21 94.8178C228.338 94.8178 226.7 94.4296 225.218 93.653C223.736 92.8765 222.956 91.7117 222.956 90.1587V26.794H206.576C205.172 26.794 204.08 26.0952 203.222 24.7751C202.442 23.455 201.974 21.9019 201.974 20.2712C201.974 18.7182 202.364 17.2428 203.066 15.9227C203.768 14.5249 204.938 13.9037 206.498 13.9037H253.532C255.17 13.9037 256.34 14.6026 257.042 15.9227C257.744 17.3204 258.134 18.7182 258.134 20.2712C258.134 21.9796 257.744 23.455 256.964 24.7751C256.184 26.0952 255.092 26.794 253.532 26.794H237.386V90.1587C237.386 91.7117 236.606 92.8765 235.124 93.653C233.642 94.4296 232.004 94.8178 230.21 94.8178Z" fill="white"/>
<path d="M262.58 94.8178C261.254 94.8178 259.85 94.5849 258.446 94.0413C257.042 93.4977 255.872 92.7989 254.858 91.9447C253.922 91.0905 253.376 90.0033 253.376 88.8386C253.376 88.6056 253.376 88.2173 253.454 87.7514L275.06 18.0969C275.606 16.4662 276.776 15.2238 278.57 14.4473C280.364 13.6707 282.314 13.2048 284.42 13.2048C286.604 13.2048 288.554 13.5931 290.348 14.4473C292.142 15.2238 293.312 16.4662 293.78 18.0969L315.23 87.7514C315.386 88.295 315.464 88.6056 315.464 88.8386C315.464 89.9257 314.996 90.9352 313.982 91.867C312.968 92.7988 311.798 93.4977 310.394 94.0413C308.99 94.5849 307.586 94.8178 306.26 94.8178C305.09 94.8178 304.076 94.5849 303.218 94.1966C302.36 93.8083 301.814 93.0318 301.502 91.9447L297.29 77.1906H271.706L267.572 91.9447C267.26 93.0318 266.714 93.8083 265.778 94.1966C264.764 94.6625 263.75 94.8178 262.58 94.8178ZM274.67 65.931H294.014L284.342 31.9191L274.67 65.931Z" fill="white"/>
<path d="M338.63 94.8178C336.758 94.8178 335.12 94.4296 333.638 93.653C332.156 92.8765 331.376 91.7117 331.376 90.1587V26.794H314.996C313.592 26.794 312.5 26.0952 311.642 24.7751C310.862 23.455 310.394 21.9019 310.394 20.2712C310.394 18.7182 310.784 17.2428 311.486 15.9227C312.188 14.5249 313.358 13.9037 314.918 13.9037H361.953C363.591 13.9037 364.761 14.6026 365.463 15.9227C366.165 17.3204 366.555 18.7182 366.555 20.2712C366.555 21.9796 366.165 23.455 365.385 24.7751C364.605 26.0952 363.513 26.794 361.953 26.794H345.728V90.1587C345.728 91.7117 344.948 92.8765 343.466 93.653C342.062 94.4296 340.424 94.8178 338.63 94.8178Z" fill="white"/>
<path d="M395.259 95.8273C390.423 95.8273 386.055 95.1284 382.155 93.7306C378.255 92.3329 375.213 90.5469 372.951 88.4503C370.689 86.3537 369.519 84.257 369.519 82.0827C369.519 81.0732 369.831 79.9085 370.377 78.666C370.923 77.4236 371.703 76.4141 372.639 75.5599C373.575 74.7057 374.667 74.3175 375.837 74.3175C377.007 74.3175 378.099 74.7057 379.191 75.5599C380.205 76.4141 381.453 77.4236 382.779 78.5884C384.105 79.7532 385.743 80.7626 387.693 81.6168C389.643 82.471 391.983 82.8593 394.791 82.8593C397.053 82.8593 399.081 82.471 400.953 81.7721C402.825 81.0733 404.385 79.9861 405.477 78.5884C406.647 77.1906 407.193 75.4046 407.193 73.1527C407.193 70.8231 406.569 68.8041 405.321 67.1734C404.073 65.5427 402.357 64.145 400.173 62.9802C397.989 61.8154 395.649 60.6506 393.153 59.5634C390.657 58.4763 388.083 57.3115 385.509 55.9914C382.935 54.749 380.595 53.1959 378.489 51.4876C376.383 49.7792 374.667 47.5273 373.341 44.9647C372.015 42.4022 371.391 39.2184 371.391 35.4135C371.391 31.2979 372.171 27.8035 373.809 25.008C375.369 22.2125 377.553 19.9606 380.127 18.1746C382.779 16.4662 385.665 15.1461 388.863 14.4472C392.061 13.6707 395.259 13.2824 398.457 13.2824C400.173 13.2824 402.201 13.4377 404.541 13.6707C406.881 13.9037 409.221 14.3696 411.561 15.0684C413.901 15.7673 415.851 16.6215 417.333 17.7863C418.815 18.9511 419.595 20.4265 419.595 22.2902C419.595 23.0667 419.361 24.0762 418.971 25.3186C418.581 26.4834 417.957 27.5705 417.099 28.5024C416.241 29.4342 415.149 29.9778 413.823 29.9778C412.653 29.9778 411.483 29.5895 410.313 28.8906C409.143 28.1918 407.661 27.4929 405.867 26.794C404.073 26.0951 401.577 25.7069 398.457 25.7069C395.883 25.7069 393.621 26.0175 391.671 26.7164C389.721 27.4152 388.317 28.3471 387.303 29.5119C386.367 30.7543 385.821 32.2297 385.821 34.0934C385.821 36.0347 386.445 37.6654 387.771 38.9855C389.097 40.3056 390.813 41.4704 392.919 42.5575C395.025 43.567 397.365 44.6541 399.861 45.6636C402.357 46.6731 404.931 47.9156 407.505 49.2356C410.079 50.6334 412.419 52.2641 414.603 54.1278C416.787 56.0691 418.425 58.3987 419.751 61.2718C420.999 64.145 421.623 67.6393 421.623 71.7549C421.623 77.0353 420.453 81.3839 418.191 84.9559C415.929 88.5279 412.731 91.2458 408.753 93.0318C404.931 94.9731 400.407 95.8273 395.259 95.8273Z" fill="white"/>
<path d="M439.017 94.8178C437.145 94.8178 435.507 94.4296 433.947 93.6531C432.387 92.8765 431.685 91.7117 431.685 90.1587V18.4076C431.685 16.7769 432.465 15.6121 433.947 14.9132C435.429 14.2143 437.145 13.8261 439.017 13.8261C440.811 13.8261 442.449 14.2143 443.931 14.9132C445.413 15.6121 446.193 16.7769 446.193 18.4076V47.2167H471.231V18.4076C471.231 16.7769 472.011 15.6121 473.493 14.9132C474.975 14.2143 476.691 13.8261 478.563 13.8261C480.357 13.8261 481.995 14.2143 483.477 14.9132C484.959 15.6121 485.739 16.7769 485.739 18.4076V90.1587C485.739 91.7117 484.959 92.8765 483.477 93.6531C481.995 94.4296 480.357 94.8178 478.563 94.8178C476.691 94.8178 475.053 94.4296 473.493 93.6531C472.011 92.8765 471.231 91.7117 471.231 90.1587V58.4764H446.193V90.1587C446.193 91.7117 445.413 92.8765 443.931 93.6531C442.449 94.4296 440.811 94.8178 439.017 94.8178Z" fill="white"/>
<path d="M524.349 95.5167C519.435 95.5167 515.067 94.6625 511.089 93.0318C507.189 91.4011 503.991 88.6833 501.651 84.9559C499.311 81.2286 498.141 76.2588 498.141 70.0466V39.3738C498.141 33.1616 499.311 28.1918 501.651 24.4645C503.991 20.7371 507.111 18.0193 511.089 16.3886C514.989 14.7579 519.435 13.9037 524.349 13.9037C529.264 13.9037 533.71 14.7579 537.61 16.3886C541.588 18.0193 544.708 20.7371 547.048 24.4645C549.31 28.1918 550.48 33.1616 550.48 39.3738V70.0466C550.48 76.2588 549.31 81.2286 547.048 84.9559C544.786 88.6833 541.588 91.4011 537.61 93.0318C533.632 94.6625 529.264 95.5167 524.349 95.5167ZM524.349 82.8593C528.016 82.8593 530.824 81.8498 532.93 79.7532C535.036 77.6566 536.05 74.4728 536.05 69.969V39.2961C536.05 34.8699 535.036 31.6085 532.93 29.5119C530.824 27.4153 528.016 26.4058 524.349 26.4058C520.683 26.4058 517.875 27.4153 515.847 29.5119C513.819 31.6085 512.805 34.7923 512.805 39.2961V69.969C512.805 74.3952 513.819 77.6566 515.847 79.7532C517.875 81.8498 520.683 82.8593 524.349 82.8593Z" fill="white"/>
<path d="M570.292 94.8178C568.42 94.8178 566.782 94.4296 565.222 93.653C563.662 92.8765 562.96 91.7117 562.96 90.1587V18.4076C562.96 17.1651 563.506 16.078 564.52 15.2238C565.534 14.3696 566.86 13.9037 568.498 13.9037H590.728C595.486 13.9037 599.776 14.6802 603.598 16.3109C607.42 17.9416 610.462 20.5818 612.646 24.2315C614.908 27.8812 616 32.7733 616 38.8302V39.5291C616 45.586 614.83 50.4781 612.568 54.1278C610.306 57.8551 607.108 60.4953 603.13 62.126C599.152 63.7567 594.706 64.6109 589.87 64.6109H577.39V90.1587C577.39 91.7117 576.61 92.8765 575.128 93.653C573.724 94.4296 572.086 94.8178 570.292 94.8178ZM577.39 53.3513H589.87C593.536 53.3513 596.344 52.3418 598.45 50.2452C600.556 48.1485 601.57 44.9648 601.57 40.6162V39.3738C601.57 35.0252 600.556 31.7638 598.45 29.6672C596.344 27.5706 593.536 26.4834 589.87 26.4834H577.39V53.3513Z" fill="white"/>
<defs>
<linearGradient id="paint0_linear_28_511" x1="-0.224143" y1="55.5092" x2="616.027" y2="55.5092" gradientUnits="userSpaceOnUse">
<stop offset="0.1633" stop-color="white"/>
<stop offset="0.9024" stop-color="#B3C0BD"/>
</linearGradient>
<linearGradient id="paint1_linear_28_511" x1="-15.2101" y1="95.5129" x2="146.806" y2="25.8783" gradientUnits="userSpaceOnUse">
<stop stop-color="#D5D5D5"/>
<stop offset="1" stop-color="white"/>
</linearGradient>
</defs>
</svg>
