<svg width="103" height="87" viewBox="0 0 103 87" fill="none" xmlns="http://www.w3.org/2000/svg">
<path fill-rule="evenodd" clip-rule="evenodd" d="M33.3773 70.2365L43.0868 49.8164C35.6709 48.242 28.2091 43.6567 23.9889 38.0778L13.836 59.415C19.4782 64.1991 26.2519 67.9591 33.3773 70.2365Z" fill="white"/>
<path fill-rule="evenodd" clip-rule="evenodd" d="M73.8973 37.4665C69.0196 43.4427 62.2459 47.8752 54.9982 49.6024L64.6771 69.9614C71.7413 67.577 78.3468 63.7253 84.0502 58.7884L73.8973 37.4665Z" fill="#4E000A"/>
<path fill-rule="evenodd" clip-rule="evenodd" d="M13.836 59.415L8.75949 70.0836C6.17539 75.5096 8.11729 82.189 13.4384 85.0166C19.0806 88.0124 26.0225 85.6739 28.7442 79.9727L33.3773 70.2365C26.2229 67.9316 19.5852 64.2556 13.836 59.415Z" fill="white"/>
<path fill-rule="evenodd" clip-rule="evenodd" d="M94.0502 14.1728C93.33 14.0292 92.5961 13.9558 91.8622 13.9558C86.567 13.9558 81.9676 17.7265 80.9309 22.9156C79.8606 28.2652 77.3529 33.2479 73.8973 37.4817L84.0349 58.8189C93.3927 50.7029 100.304 39.6521 102.781 27.287C103.989 21.2343 100.075 15.365 94.0502 14.1728Z" fill="white"/>
<path fill-rule="evenodd" clip-rule="evenodd" d="M54.9982 49.6024C52.8269 50.1221 50.6098 50.3972 48.3926 50.3972C46.6648 50.3972 44.8758 50.1985 43.0868 49.8164C35.6709 48.242 28.2091 43.6567 23.9889 38.0778C22.9339 36.6869 22.0776 35.2349 21.4813 33.7523C19.1724 28.0512 12.6739 25.3 6.97051 27.5927C1.26714 29.9006 -1.48516 36.3966 0.80842 42.0977C3.42311 48.5783 8.04088 54.524 13.836 59.415C19.5807 64.2556 26.2121 67.9301 33.362 70.2365C38.2703 71.8108 43.362 72.682 48.3773 72.682C53.9431 72.682 59.4324 71.7191 64.6618 69.9614L54.9982 49.6024Z" fill="white"/>
<path fill-rule="evenodd" clip-rule="evenodd" d="M89.3866 70.0378L73.8973 37.4665L73.882 37.4818C73.882 37.4818 73.882 37.4665 73.8973 37.4665L59.1572 6.46945C57.3131 2.59482 53.388 0.114141 49.096 0.111084C44.7993 0.111084 40.885 2.58718 39.0348 6.46945L24.0042 38.0778C28.2244 43.6567 35.6862 48.2421 43.1021 49.8164L47.9645 39.6063C48.4232 38.6434 49.7994 38.6434 50.2581 39.6063L69.4477 79.9574C71.2902 83.8397 75.2245 86.3234 79.5242 86.3158C80.5181 86.3158 81.512 86.1782 82.4906 85.9031C89.2031 84.0537 92.3835 76.335 89.3866 70.0378Z" fill="white"/>
</svg>
