<svg width="376" height="120" viewBox="0 0 376 120" fill="none" xmlns="http://www.w3.org/2000/svg">
<path fill-rule="evenodd" clip-rule="evenodd" d="M316 0H256V60V120H312V14C312 11.7909 313.791 10 316 10C318.209 10 320 11.7909 320 14V120H376V60C376 26.8629 349.137 0 316 0Z" fill="#FF4700"/>
<path fill-rule="evenodd" clip-rule="evenodd" d="M188 120C221.137 120 248 93.1371 248 60C248 26.8629 221.137 0 188 0C154.863 0 128 26.8629 128 60C128 93.1371 154.863 120 188 120ZM188 10C185.791 10 184 11.7909 184 14V106C184 108.209 185.791 110 188 110C190.209 110 192 108.209 192 106V14C192 11.7909 190.209 10 188 10Z" fill="#FF4700"/>
<path fill-rule="evenodd" clip-rule="evenodd" d="M120 0.131104C88.7279 2.18945 64 28.2069 64 59.9999V120H120V119.869V59.9999V0.131104Z" fill="#FF4700"/>
<path fill-rule="evenodd" clip-rule="evenodd" d="M56 0.131104V119.869C24.7279 117.81 0 91.7929 0 59.9999C0 28.2069 24.7279 2.18945 56 0.131104Z" fill="#FF4700"/>
</svg>
