<svg width="87" height="88" viewBox="0 0 87 88" fill="none" xmlns="http://www.w3.org/2000/svg">
<path d="M0 17.3411C0 8.2462 7.37291 0.873291 16.4679 0.873291H70.5321C79.6271 0.873291 87 8.2462 87 17.3411V71.4054C87 80.5004 79.6271 87.8733 70.5321 87.8733H16.4679C7.37291 87.8733 0 80.5004 0 71.4054V17.3411Z" fill="white"/>
<path d="M66.4929 10.1947H55.3071C48.7862 10.1947 43.5 15.481 43.5 22.0019V66.7447C43.5 73.2656 48.7862 78.5519 55.3071 78.5519H66.4929C73.0138 78.5519 78.3 73.2656 78.3 66.7447V22.0019C78.3 15.481 73.0138 10.1947 66.4929 10.1947Z" fill="#0C0C0D"/>
<path d="M0 17.3411C0 8.2462 7.37291 0.873291 16.4679 0.873291H70.5321C79.6271 0.873291 87 8.2462 87 17.3411V71.4054C87 80.5004 79.6271 87.8733 70.5321 87.8733H16.4679C7.37291 87.8733 0 80.5004 0 71.4054V17.3411Z" fill="white"/>
<path d="M66.4929 9.57329H55.3071C48.7862 9.57329 43.5 14.8595 43.5 21.3804V66.1233C43.5 72.6442 48.7862 77.9304 55.3071 77.9304H66.4929C73.0138 77.9304 78.3 72.6442 78.3 66.1233V21.3804C78.3 14.8595 73.0138 9.57329 66.4929 9.57329Z" fill="#0C0C0D"/>
</svg>
