<svg width="87" height="86" viewBox="0 0 87 86" fill="none" xmlns="http://www.w3.org/2000/svg">
<path d="M15.4063 0.707031H71.5938C80.1125 0.707031 87 7.59453 87 16.1133V70.1258C87 78.6445 80.1125 85.532 71.5938 85.532H15.4063C6.8875 85.532 0 78.6445 0 70.1258V16.1133C0 7.59453 6.8875 0.707031 15.4063 0.707031Z" fill="#330000"/>
<path d="M42.05 51.457H28.565L25.81 59.9758C25.7375 60.302 25.4475 60.5195 25.1213 60.4833H18.3063C17.9075 60.4833 17.7988 60.2658 17.9075 59.8308L29.58 26.227C29.6888 25.8645 29.7975 25.4658 29.9425 25.0308C30.0875 24.2695 30.16 23.472 30.16 22.6745C30.1237 22.4933 30.2688 22.312 30.45 22.2758H39.8388C40.1288 22.2758 40.2738 22.3845 40.31 22.5658L53.5413 59.9033C53.65 60.302 53.5413 60.4833 53.1788 60.4833H45.6025C45.3488 60.5195 45.095 60.3383 45.0225 60.0845L42.05 51.457ZM30.6675 44.0983H39.875C39.6575 43.337 39.3675 42.4308 39.0413 41.4883C38.715 40.5095 38.3888 39.4583 38.0625 38.3708C37.7 37.247 37.3738 36.1595 37.0113 35.0358C36.6488 33.912 36.3225 32.8608 36.0325 31.8095C35.7425 30.7945 35.4888 29.852 35.235 28.982H35.1625C34.8363 30.5408 34.4375 32.0995 33.93 33.6583C33.3863 35.3983 32.8425 37.2108 32.2625 39.0233C31.755 40.872 31.2113 42.5758 30.6675 44.0983ZM61.625 28.6195C60.4288 28.6558 59.2688 28.1845 58.3988 27.3508C57.565 26.4445 57.13 25.2483 57.1663 24.0158C57.13 22.7833 57.6013 21.6233 58.4713 20.7895C59.3413 19.9558 60.5013 19.5208 61.6975 19.5208C63.1113 19.5208 64.1988 19.9558 64.9963 20.7895C65.7938 21.6595 66.2288 22.8195 66.1925 24.0158C66.2288 25.2483 65.7938 26.4445 64.9238 27.3508C64.09 28.2208 62.8575 28.692 61.625 28.6195ZM57.565 60.0845V32.172C57.565 31.8095 57.71 31.6645 58.0363 31.6645H65.2137C65.54 31.6645 65.685 31.8458 65.685 32.172V60.0845C65.685 60.4833 65.54 60.6645 65.2137 60.6645H58.1088C57.7463 60.6645 57.565 60.447 57.565 60.0845Z" fill="#FF9A00"/>
</svg>
