<?xml version="1.0" encoding="UTF-8"?>
<svg id="Calque_2" data-name="Calque 2" xmlns="http://www.w3.org/2000/svg" viewBox="0 0 319.69 183.17">
  <defs>
    <style>
      .cls-1 {
        fill: #fff;
        stroke-width: 0px;
      }
    </style>
  </defs>
  <g id="icon-dark">
    <g>
      <path class="cls-1" d="m47.52.12h66.92c9.92,0,18.92,5.8,23.03,14.83l76.47,168.22h-66.92c-9.92,0-18.92-5.8-23.03-14.83L47.52.12Z"/>
      <path class="cls-1" d="m153.28,0h66.92c9.92,0,18.92,5.8,23.03,14.83l76.47,168.22h-66.92c-9.92,0-18.92-5.8-23.03-14.83L153.28,0Z"/>
      <path class="cls-1" d="m108.17,183.17H41.6c-22.96,0-41.6-18.61-41.6-41.6,0-8.63,2.65-16.64,7.15-23.3,7.49-11.03,20.12-18.31,34.45-18.31,16.24,0,30.26,9.31,37.1,22.87h0l29.46,60.34Z"/>
    </g>
  </g>
</svg>