<svg width="88" height="89" viewBox="0 0 88 89" fill="none" xmlns="http://www.w3.org/2000/svg">
<path fill-rule="evenodd" clip-rule="evenodd" d="M51.8154 0.372925C51.1791 0.372925 50.5882 0.509823 50.0428 0.692344C51.2018 1.46807 51.8381 2.49478 52.1563 3.65837C52.1791 3.81808 52.2245 3.93216 52.2472 4.09187C52.27 4.22876 52.2927 4.36566 52.2927 4.50255C52.3836 6.51032 51.77 6.76129 51.3382 7.94771C50.6791 9.47636 50.8609 11.1191 51.6563 12.4424C51.7245 12.6021 51.8154 12.7846 51.9291 12.9443C51.0654 7.17198 55.8607 6.30498 56.747 4.50255C56.8152 2.92827 55.5198 1.87876 54.4971 1.14865C53.5199 0.555451 52.6335 0.372925 51.8154 0.372925ZM59.0423 1.67342C58.9514 2.19817 59.0196 2.06128 58.9969 2.33507C58.9742 2.51759 58.9742 2.74575 58.9515 2.92827C58.9061 3.1108 58.8605 3.29332 58.7924 3.47585C58.747 3.65837 58.6788 3.8409 58.6106 4.02342C58.5196 4.20595 58.4515 4.36566 58.3606 4.54818C58.2924 4.63948 58.247 4.7307 58.1788 4.82197C58.1334 4.89042 58.0879 4.95887 58.0424 5.02731C57.9288 5.18703 57.8152 5.34673 57.7016 5.48362C57.5652 5.62052 57.4516 5.78022 57.2925 5.89431V5.91715C57.1561 6.03123 57.0198 6.16812 56.8607 6.2822C56.3834 6.64725 55.838 6.92104 55.338 7.26327C55.179 7.37735 55.0199 7.46862 54.8835 7.60551C54.7244 7.71958 54.5881 7.83366 54.4517 7.97055C54.2926 8.10745 54.179 8.24434 54.0426 8.40406C53.929 8.54095 53.7927 8.70065 53.7018 8.86037C53.5881 9.02007 53.4745 9.17978 53.3836 9.33949C53.2926 9.52201 53.2245 9.68173 53.1336 9.86425C53.0654 10.0468 52.9972 10.2065 52.9518 10.389C52.8836 10.5943 52.8382 10.7769 52.7927 10.9594C52.77 11.0507 52.7699 11.1647 52.7473 11.256C52.7245 11.3473 52.7245 11.4385 52.7019 11.5298C52.7019 11.7123 52.6791 11.9177 52.6791 12.1002C52.6791 12.2371 52.6791 12.374 52.7019 12.5109C52.7019 12.6934 52.7246 12.8759 52.77 13.0813C52.7928 13.2638 52.8382 13.4463 52.8837 13.6288C52.9519 13.8114 52.9973 13.9939 53.0655 14.1764C53.1109 14.2905 53.1791 14.4046 53.2246 14.4958L47.9976 12.4652C47.1112 12.2143 46.2477 11.9861 45.3613 11.7808C44.8841 11.6667 44.4068 11.5526 43.9296 11.4385C42.566 11.1647 41.1797 10.9594 39.7934 10.8225C39.748 10.8225 39.7253 10.7997 39.6798 10.7997C38.3162 10.6628 36.9754 10.5943 35.6118 10.5943C34.6119 10.5943 33.6119 10.6399 32.6347 10.7084C31.2484 10.7997 29.8621 10.9822 28.4758 11.2103C28.1349 11.2559 27.794 11.3244 27.4531 11.3929C26.7486 11.5298 26.0668 11.6895 25.4078 11.8492C25.0669 11.9405 24.726 12.0317 24.3851 12.123C24.0442 12.2599 23.7261 12.4196 23.4079 12.5565C23.1579 12.6705 22.9079 12.7846 22.6579 12.8987C22.6125 12.9216 22.567 12.9216 22.5443 12.9443C22.317 13.0584 22.1125 13.1496 21.908 13.2637C21.8398 13.2866 21.7943 13.3093 21.7489 13.3322C21.4989 13.4462 21.2489 13.5831 21.0444 13.6972C20.8853 13.7657 20.7262 13.8569 20.5898 13.9254C20.5217 13.971 20.4308 14.0167 20.3853 14.0394C20.1808 14.1535 19.9762 14.2676 19.7944 14.3817C19.5899 14.4958 19.4081 14.6098 19.249 14.7239C19.0899 14.838 18.9308 14.9293 18.7945 15.0433C18.7717 15.0662 18.7491 15.0662 18.7263 15.0889C18.5899 15.1802 18.4309 15.2943 18.2945 15.4083C18.2945 15.4083 18.2717 15.4312 18.2491 15.4539C18.1355 15.5452 18.0218 15.6365 17.9082 15.7277C17.8628 15.7506 17.8173 15.7962 17.7718 15.819C17.6582 15.9103 17.5446 16.0244 17.4309 16.1156C17.4082 16.1612 17.3628 16.1841 17.34 16.2069C17.2037 16.3438 17.0673 16.4579 16.9309 16.5948C16.9082 16.5948 16.9082 16.6176 16.8855 16.6404C16.7492 16.7545 16.6128 16.8914 16.4764 17.0283C16.4537 17.0511 16.4537 17.0739 16.431 17.0739C16.3174 17.1879 16.2038 17.302 16.0901 17.4389C16.0447 17.4845 15.9765 17.5302 15.9311 17.5758C15.8174 17.7127 15.6811 17.8496 15.5447 17.9865C15.5219 18.0321 15.4765 18.0549 15.4538 18.1006C15.272 18.2831 15.1129 18.4656 14.9311 18.6481C14.9083 18.671 14.8857 18.6937 14.8629 18.7166C14.4993 19.1044 14.1129 19.4923 13.7039 19.8345C13.2948 20.1996 12.863 20.5418 12.4312 20.8384C11.9767 21.1579 11.5449 21.4316 11.0676 21.7054C10.6131 21.9564 10.1359 22.1845 9.63588 22.3899C9.15863 22.5952 8.65866 22.7778 8.15868 22.9375C7.20418 23.1428 6.22696 23.5307 5.38609 23.5991C5.20428 23.5991 4.99975 23.6447 4.81794 23.6676C4.6134 23.7132 4.4316 23.7589 4.24979 23.8045C4.06798 23.8729 3.88617 23.9413 3.70436 24.0098C3.52255 24.0782 3.34074 24.1695 3.15894 24.2608C2.99985 24.3748 2.81804 24.4661 2.65895 24.5802C2.49988 24.6943 2.34079 24.8311 2.20443 24.968C2.04536 25.0821 1.88627 25.2418 1.74991 25.3787C1.61355 25.5384 1.47719 25.6753 1.36357 25.835C1.24994 26.0176 1.11358 26.1773 1.02267 26.3598C0.909044 26.5195 0.795416 26.702 0.704507 26.8846C0.613566 27.0899 0.5227 27.2724 0.454521 27.4778C0.386342 27.6603 0.318163 27.8656 0.249984 28.071C0.204568 28.2535 0.159044 28.436 0.136357 28.6185C0.136357 28.6414 0.113596 28.6641 0.113596 28.687C0.0681784 28.8923 0.0681784 29.1661 0.0454164 29.303C0.0226553 29.4627 0 29.5996 0 29.7593C0 29.8506 7.07482e-08 29.9647 0.0227612 30.0559C0.0455223 30.2157 0.0681775 30.3525 0.113702 30.4894C0.159119 30.6263 0.204643 30.7632 0.272779 30.9001V30.923C0.340958 31.0599 0.431866 31.1968 0.522765 31.3336C0.613705 31.4705 0.704582 31.6074 0.81821 31.7443C0.931838 31.8584 1.0682 31.9953 1.20455 32.1094C1.34091 32.2463 1.47727 32.3603 1.63635 32.4744C2.18178 32.9536 2.31813 33.1133 3.02264 33.4783C3.13627 33.5468 3.24991 33.5924 3.38627 33.6608C3.40903 33.6608 3.43169 33.6837 3.45445 33.6837C3.45445 33.7293 3.45445 33.7521 3.47721 33.7978C3.49997 33.9803 3.54539 34.1628 3.59084 34.3453C3.63626 34.5507 3.70448 34.7332 3.77266 34.8929C3.84084 35.0298 3.88629 35.1667 3.95446 35.3036C3.97723 35.3492 3.99988 35.3949 4.02264 35.4177C4.11358 35.6002 4.20445 35.7599 4.29535 35.9196C4.40899 36.0793 4.52261 36.239 4.63624 36.3988C4.74987 36.5356 4.88623 36.6954 5.02259 36.8322C5.15894 36.9691 5.2953 37.0832 5.45439 37.2201C5.45439 37.2201 5.47715 37.243 5.49981 37.243C5.63616 37.3571 5.77252 37.4711 5.90888 37.5624C6.06796 37.6765 6.22704 37.7677 6.40885 37.859C6.56794 37.9503 6.74975 38.0415 6.93155 38.11C7.06791 38.1784 7.22699 38.2241 7.38607 38.2697C7.40884 38.2926 7.43149 38.2926 7.47702 38.3153C7.56796 38.3382 7.68154 38.3609 7.77245 38.3837C7.70427 39.6158 7.68151 40.7794 7.86339 41.1901C8.06792 41.6464 9.06787 40.2546 10.0678 38.6575C9.93147 40.2318 9.84056 42.0799 10.0678 42.6274C10.3178 43.1978 11.6814 41.4182 12.8631 39.4561C28.976 35.7143 43.6798 46.894 45.2252 62.6824C44.9297 60.2183 41.9071 58.8493 40.5209 59.1916C39.8391 60.8799 38.68 63.0474 36.8165 64.3935C36.9756 62.8877 36.9074 61.3362 36.5892 59.8304C36.0893 61.9294 35.112 63.8916 33.7712 65.5799C31.6122 65.7396 29.4532 64.6901 28.3169 63.1159C28.226 63.0474 28.2033 62.9105 28.1351 62.8193C28.0669 62.6595 27.9987 62.4998 27.9533 62.3401C27.8851 62.1804 27.8397 62.0207 27.8169 61.861C27.7942 61.7013 27.7942 61.5416 27.7942 61.3591C27.7942 61.245 27.7942 61.1309 27.7942 61.0168C27.8169 60.8571 27.8623 60.6974 27.9078 60.5377C27.9532 60.378 27.9987 60.2183 28.0669 60.0586C28.1578 59.8989 28.226 59.7391 28.3396 59.5794C28.7259 58.4843 28.7259 57.5945 28.0214 57.0697C27.8851 56.9784 27.7487 56.91 27.5896 56.8416C27.4987 56.8187 27.3851 56.7731 27.2942 56.7503C27.226 56.7274 27.1806 56.7047 27.1124 56.6818C26.9533 56.6362 26.7942 56.5905 26.6351 56.5677C26.476 56.5221 26.317 56.4993 26.1579 56.4993C25.9988 56.4764 25.817 56.4537 25.6579 56.4537C25.5443 56.4537 25.4306 56.4765 25.317 56.4765C25.1352 56.4765 24.9761 56.4994 24.817 56.545C24.658 56.5679 24.4989 56.5906 24.3398 56.6363C24.1807 56.6819 24.0216 56.7276 23.8625 56.796C23.7035 56.8644 23.5671 56.9329 23.408 57.0013C23.2717 57.0698 23.1353 57.161 22.9762 57.2295C17.681 60.6975 20.84 68.8198 24.4534 71.1698C23.0899 71.4208 21.7036 71.7174 21.3172 72.014C21.2945 72.0368 21.2718 72.0596 21.2718 72.0596C22.249 72.6528 23.2717 73.1547 24.3398 73.5882C25.7943 74.0674 27.3397 74.5009 28.0215 74.6834V74.7062C29.9077 75.0941 31.8167 75.231 33.7484 75.1169C43.8161 74.4096 52.0657 66.7208 53.5656 56.5906C53.6111 56.796 53.6566 56.9785 53.702 57.1839C53.7702 57.5945 53.8611 58.028 53.9065 58.4615V58.4844C53.9519 58.6897 53.9747 58.8951 53.9975 59.0776V59.1689C54.0203 59.3742 54.0429 59.5796 54.0429 59.7621C54.0656 60.0131 54.0883 60.264 54.0883 60.515V60.8801C54.0883 60.9942 54.1111 61.131 54.1111 61.2451C54.1111 61.382 54.0883 61.5189 54.0883 61.6558V61.9752C54.0883 62.1349 54.0655 62.2718 54.0655 62.4315C54.0655 62.5228 54.0655 62.6141 54.0428 62.7281C54.0428 62.8879 54.02 63.0476 54.02 63.2301C53.9972 63.2985 53.9972 63.367 53.9972 63.4354C53.9745 63.618 53.9518 63.7777 53.929 63.9602C53.929 64.0286 53.929 64.0971 53.9063 64.1655C53.8835 64.3937 53.8381 64.599 53.8154 64.8272V64.8501V64.8729C53.7699 65.0782 53.7244 65.3064 53.679 65.5117V65.5802C53.6336 65.7855 53.588 65.9909 53.5426 66.1962C53.5426 66.2191 53.5199 66.2646 53.5199 66.2875C53.4745 66.4928 53.4289 66.6982 53.3608 66.9035V66.972C53.2926 67.2001 53.2244 67.4055 53.179 67.6108C53.1562 67.6336 53.1562 67.6564 53.1562 67.6564C53.0881 67.8846 53.0199 68.1127 52.9517 68.3409C52.8608 68.569 52.7926 68.7744 52.7017 69.0025C52.6108 69.2307 52.5426 69.4588 52.4517 69.6642C52.3608 69.8923 52.2699 70.0977 52.179 70.3258H52.1562C52.0653 70.5312 51.9744 70.7593 51.8608 70.9647C51.838 71.0331 51.8154 71.0787 51.7926 71.1244C51.7698 71.1472 51.7698 71.17 51.7472 71.1928C50.27 74.1817 48.0883 76.8055 45.3611 78.8589C45.1793 78.9729 44.9975 79.1098 44.8157 79.2467C44.7703 79.2923 44.7021 79.3152 44.6566 79.3608C44.4975 79.4749 44.3385 79.589 44.1567 79.703L44.2248 79.8399H44.2476C44.5658 79.7943 44.8839 79.7486 45.2021 79.703H45.2248C45.8157 79.6117 46.4066 79.4977 46.9975 79.3836C47.1566 79.3607 47.3384 79.3152 47.4975 79.2695C47.6111 79.2467 47.702 79.2239 47.8156 79.2011C47.9747 79.1782 48.1338 79.1326 48.2929 79.1098C48.4292 79.0642 48.5656 79.0413 48.702 78.9957C50.9746 78.4481 53.179 77.6952 55.2925 76.8054C51.6791 81.7564 46.8384 85.7491 41.1796 88.3729C43.7931 88.1904 46.4066 87.7569 48.9292 87.0268C58.0878 84.3117 65.792 78.1287 70.4054 69.801C69.4736 75.0714 67.3828 80.0909 64.2921 84.4715C66.4965 83.0113 68.5191 81.3229 70.3599 79.4064C75.4506 74.0675 78.7914 67.2913 79.9277 60.0131C80.7003 63.618 80.9276 67.3369 80.5867 71.0102C96.995 48.0349 81.9503 24.2154 75.6551 17.9411C75.6323 17.8955 75.6097 17.8727 75.6097 17.8271C75.5869 17.8499 75.5869 17.8499 75.5869 17.8727C75.5869 17.8498 75.5869 17.8498 75.5642 17.8271C75.5642 18.1009 75.5414 18.3746 75.5188 18.6484C75.4506 19.1732 75.3824 19.6751 75.2915 20.1771C75.1779 20.679 75.0415 21.1809 74.9052 21.6829C74.7461 22.162 74.5643 22.664 74.3597 23.1431C74.1552 23.5994 73.9279 24.0785 73.6779 24.5349C73.428 24.9684 73.1552 25.4247 72.8598 25.8353C72.5644 26.2688 72.2462 26.6795 71.928 27.0674C71.5871 27.4781 71.2235 27.8431 70.8599 28.2082C70.6326 28.4135 70.4281 28.596 70.2008 28.7785C70.019 28.9383 69.8599 29.0752 69.6781 29.2349C69.2691 29.5543 68.86 29.8509 68.4055 30.1247C67.9737 30.3985 67.5192 30.6722 67.0646 30.9004C66.5874 31.1286 66.1101 31.3339 65.6329 31.5392C65.1556 31.7218 64.6557 31.8815 64.1557 32.0184C63.6557 32.1553 63.133 32.2693 62.633 32.3606C62.1103 32.4519 61.5876 32.4975 61.0877 32.5431C60.724 32.566 60.3604 32.5887 59.9968 32.5887C59.4741 32.5887 58.9514 32.5431 58.4514 32.4974C57.9287 32.4518 57.406 32.3833 56.9061 32.2693C56.3834 32.178 55.8834 32.0411 55.3834 31.8814H55.3607C55.8606 31.8358 56.3606 31.7901 56.8606 31.6989C57.3833 31.6076 57.8832 31.4935 58.3832 31.3566C58.8832 31.2197 59.3832 31.06 59.8604 30.8775C60.3604 30.695 60.8377 30.4668 61.2922 30.2387C61.7694 30.0105 62.2012 29.7596 62.6557 29.4858C63.0875 29.1892 63.5193 28.8926 63.9284 28.5731C64.3375 28.2537 64.7238 27.9115 65.0874 27.5464C65.4738 27.2042 65.8147 26.8163 66.1556 26.4285C66.4965 26.0178 66.8146 25.6071 67.1101 25.1964C67.1555 25.128 67.201 25.0367 67.2464 24.9683C67.4737 24.6032 67.7009 24.2382 67.9055 23.8731C68.1555 23.4168 68.3827 22.9605 68.5873 22.4814C68.7918 22.0022 68.9736 21.5231 69.1327 21.0212C69.2918 20.542 69.4054 20.0401 69.519 19.5382C69.61 19.0134 69.7008 18.5115 69.7463 18.0095C69.7917 17.4848 69.8372 16.96 69.8372 16.4581C69.8372 16.093 69.8144 15.728 69.7918 15.3629C69.7464 14.8382 69.6782 14.3362 69.61 13.8343C69.5191 13.3095 69.4055 12.8076 69.2691 12.3056C69.11 11.8265 68.951 11.3245 68.7691 10.8454C68.5873 10.3663 68.3601 9.88716 68.1328 9.43084C67.8828 8.97453 67.6328 8.51822 67.3601 8.08473C67.0647 7.65124 66.7692 7.24055 66.4511 6.82987C66.1102 6.442 65.7693 6.05414 65.4057 5.66627C65.2239 5.48375 65.0193 5.27841 64.8148 5.09589C63.7921 4.29734 62.724 3.54442 61.6559 2.85995C61.4968 2.76866 61.3604 2.70024 61.2013 2.63179C60.4514 2.15267 59.7468 1.90156 59.0423 1.67342Z" fill="white"/>
</svg>
