<svg width="92" height="92" viewBox="0 0 92 92" fill="none" xmlns="http://www.w3.org/2000/svg">
<path fill-rule="evenodd" clip-rule="evenodd" d="M23.0157 59.3857V68.9843L0 45.9686L4.82283 41.1824L23.0157 59.3857ZM32.6143 68.9843H23.0157L46.0314 92L50.8333 87.2033L32.6143 68.9843ZM87.2033 50.7914L92 45.9895L46.0105 0L41.2138 4.80191L59.3857 22.9948H48.401L35.7162 10.3204L30.9143 15.1171L38.8128 23.0157H33.3152V58.7057H69.0052V53.1872L76.9038 61.0857L81.7057 56.2891L69.0052 43.5886V32.6038L87.2033 50.7914ZM25.4166 20.5938L20.62 25.3957L25.7671 30.5429L30.5638 25.741L25.4166 20.5938ZM66.259 61.4362L61.4781 66.2329L66.6252 71.38L71.4219 66.5781L66.259 61.4362ZM15.1224 30.8933L10.3204 35.6952L23.0157 48.3905V38.7867L15.1224 30.8933ZM53.2133 68.9843H43.6095L56.3048 81.6796L61.1067 76.8776L53.2133 68.9843Z" fill="#FF6363"/>
</svg>
