<svg width="94" height="94" viewBox="0 0 94 94" fill="none" xmlns="http://www.w3.org/2000/svg">
<path fill-rule="evenodd" clip-rule="evenodd" d="M23.516 60.6767V70.484L0 46.9679L4.92768 42.0777L23.516 60.6767ZM33.3233 70.484H23.516L47.0321 94L51.9384 89.099L33.3233 70.484ZM89.099 51.8956L94 46.9893L47.0107 0L42.1097 4.9063L60.6767 23.4947H49.4531L36.4926 10.5448L31.5863 15.4458L39.6566 23.516H34.0395V59.9819H70.5053V54.3434L78.5756 62.4137L83.4819 57.5127L70.5053 44.5362V33.3126L89.099 51.8956ZM25.9692 21.0415L21.0682 25.9478L26.3273 31.2068L31.2282 26.3005L25.9692 21.0415ZM67.6995 62.7718L62.8145 67.6727L68.0736 72.9318L72.9745 68.0255L67.6995 62.7718ZM15.4511 31.5649L10.5448 36.4712L23.516 49.4425V39.6299L15.4511 31.5649ZM54.3701 70.484H44.5575L57.5288 83.4552L62.4351 78.5489L54.3701 70.484Z" fill="white"/>
</svg>
