<svg width="87" height="88" viewBox="0 0 87 88" fill="none" xmlns="http://www.w3.org/2000/svg">
<path d="M0 16.707C0 7.87048 7.16344 0.707031 16 0.707031H71C79.8366 0.707031 87 7.87048 87 16.707V71.707C87 80.5436 79.8366 87.707 71 87.707H16C7.16344 87.707 0 80.5436 0 71.707V16.707Z" fill="#0C90F0"/>
<path d="M43.5 87.707C67.5244 87.707 87 68.2314 87 44.207C87 20.1826 67.5244 0.707031 43.5 0.707031C19.4756 0.707031 0 20.1826 0 44.207C0 68.2314 19.4756 87.707 43.5 87.707Z" fill="url(#paint0_linear_37_165)"/>
<path d="M69.7784 65.5662L44.2901 12.4911C43.9503 11.7774 42.9393 11.7774 42.5909 12.4911L17.1026 65.5662C16.7458 66.2969 17.434 66.9936 18.1731 66.6452L37.3403 57.7753C37.4933 57.7073 37.6547 57.6988 37.8076 57.7498C37.986 57.8093 38.1305 57.9452 38.1984 58.1321L42.9987 72.0062C43.1517 72.4226 43.7379 72.4226 43.8823 72.0062L48.6826 58.1321C48.7506 57.9452 48.895 57.8093 49.0734 57.7498C49.2179 57.6988 49.3878 57.7073 49.5407 57.7753L68.7079 66.6452C69.4386 66.9936 70.1268 66.3054 69.7784 65.5662Z" fill="url(#paint1_linear_37_165)"/>
<path d="M43.4405 11.9644C43.1007 11.9644 42.7608 12.1428 42.5909 12.4996L17.1026 65.5747C16.7458 66.3054 17.434 67.0021 18.1731 66.6537L37.3403 57.7838C37.4933 57.7158 37.6547 57.7073 37.8076 57.7583L42.7354 13.0858C42.7693 12.7545 43.1602 12.5166 43.449 12.5166V11.9644H43.4405Z" fill="url(#paint2_linear_37_165)"/>
<path d="M49.0734 57.7498C48.895 57.8093 48.7506 57.9452 48.6826 58.1321L43.8823 72.0062C43.7379 72.4226 43.1432 72.4226 42.9987 72.0062L38.1984 58.1321C38.1305 57.9452 37.9775 57.8093 37.8076 57.7498L42.7354 13.0009C42.8033 12.3467 44.0692 12.3467 44.1457 13.0009L49.0734 57.7498Z" fill="url(#paint3_linear_37_165)"/>
<path d="M44.1372 13.0009C44.1032 12.6695 43.6869 12.5081 43.432 12.5081V72.3291C43.6189 72.3291 43.8059 72.2271 43.8738 72.0147L48.6826 58.1321C48.7506 57.9452 48.895 57.8093 49.0734 57.7498L44.1372 13.0009Z" fill="url(#paint4_linear_37_165)"/>
<path d="M44.1117 12.7715L48.9205 57.8178C48.9715 57.7838 49.0225 57.7583 49.0734 57.7413C49.1244 57.7243 49.1754 57.7158 49.2264 57.7073L44.3496 12.7545C44.3411 12.6865 44.3071 12.6695 44.2222 12.678C44.1372 12.6865 44.1032 12.712 44.1117 12.7715Z" fill="url(#paint5_linear_37_165)"/>
<path d="M42.7608 12.78L37.9521 57.8263C37.9011 57.7923 37.8501 57.7668 37.7991 57.7498C37.7481 57.7328 37.6972 57.7243 37.6462 57.7158L42.5229 12.746C42.5314 12.678 42.5654 12.661 42.6504 12.6695C42.7438 12.6865 42.7693 12.712 42.7608 12.78Z" fill="url(#paint6_linear_37_165)"/>
<path d="M42.7948 13.5956C43.3131 14.3687 43.4405 15.8131 43.4405 16.7477C43.4405 15.8131 43.5595 14.3687 44.0862 13.5956H42.7948Z" fill="white"/>
<path d="M44.3723 13.0581C44.4557 12.544 44.1066 12.0595 43.5925 11.9761C43.0783 11.8927 42.5939 12.2418 42.5105 12.7559C42.4271 13.27 42.7762 13.7545 43.2903 13.8379C43.8044 13.9213 44.2888 13.5722 44.3723 13.0581Z" fill="white"/>
<path d="M43.449 72.3291L43.602 13.0604C43.602 12.9754 43.534 12.9074 43.449 12.9074C43.3641 12.9074 43.2961 12.9754 43.2961 13.0604L43.449 72.3291Z" fill="url(#paint7_linear_37_165)"/>
<defs>
<linearGradient id="paint0_linear_37_165" x1="3385.61" y1="7949.98" x2="5322.57" y2="721.154" gradientUnits="userSpaceOnUse">
<stop stop-color="#1455F0"/>
<stop offset="1" stop-color="#0A96F0"/>
</linearGradient>
<linearGradient id="paint1_linear_37_165" x1="3500.36" y1="467.114" x2="4475.8" y2="8867.92" gradientUnits="userSpaceOnUse">
<stop stop-color="white"/>
<stop offset="1" stop-color="#DAE5F5"/>
</linearGradient>
<linearGradient id="paint2_linear_37_165" x1="5608.8" y1="521.228" x2="3886.64" y2="9150.5" gradientUnits="userSpaceOnUse">
<stop stop-color="#DAE5F2"/>
<stop offset="0.2396" stop-color="#D5E2F1"/>
<stop offset="0.5219" stop-color="#C7D9EE"/>
<stop offset="0.8246" stop-color="#AFCBE9"/>
<stop offset="1" stop-color="#9EC0E6"/>
</linearGradient>
<linearGradient id="paint3_linear_37_165" x1="4350" y1="103.889" x2="4350" y2="8579.52" gradientUnits="userSpaceOnUse">
<stop stop-color="#FAFCFF"/>
<stop offset="1" stop-color="#CEDCF2"/>
</linearGradient>
<linearGradient id="paint4_linear_37_165" x1="4311.72" y1="172.097" x2="4355.31" y2="8671.47" gradientUnits="userSpaceOnUse">
<stop stop-color="#D0DEF2"/>
<stop offset="1" stop-color="#72A0DC"/>
</linearGradient>
<linearGradient id="paint5_linear_37_165" x1="4350" y1="103.628" x2="4350" y2="8579.95" gradientUnits="userSpaceOnUse">
<stop stop-color="white"/>
<stop offset="1" stop-color="#EBF0FF"/>
</linearGradient>
<linearGradient id="paint6_linear_37_165" x1="4350" y1="105.368" x2="4350" y2="8578.39" gradientUnits="userSpaceOnUse">
<stop stop-color="white"/>
<stop offset="1" stop-color="#EBF0FF"/>
</linearGradient>
<linearGradient id="paint7_linear_37_165" x1="58.5891" y1="83.2627" x2="58.5891" y2="5871.23" gradientUnits="userSpaceOnUse">
<stop stop-color="white"/>
<stop offset="1" stop-color="#CEDCF2"/>
</linearGradient>
</defs>
</svg>
