<svg width="109" height="92" viewBox="0 0 109 92" fill="none" xmlns="http://www.w3.org/2000/svg">
<path fill-rule="evenodd" clip-rule="evenodd" d="M35.3216 74.8104L45.5967 53.2008C37.7488 51.5347 29.8523 46.6823 25.3863 40.7784L14.6419 63.3586C20.6128 68.4213 27.7811 72.4004 35.3216 74.8104Z" fill="#1A007F"/>
<path fill-rule="evenodd" clip-rule="evenodd" d="M78.202 40.1315C73.0401 46.4559 65.8718 51.1466 58.2019 52.9743L68.4447 74.5193C75.9204 71.996 82.9107 67.9199 88.9463 62.6954L78.202 40.1315Z" fill="#4E000A"/>
<path fill-rule="evenodd" clip-rule="evenodd" d="M14.6419 63.3586L9.26977 74.6486C6.53514 80.3907 8.59016 87.4591 14.2212 90.4515C20.1921 93.6217 27.5384 91.147 30.4187 85.1138L35.3216 74.8104C27.7504 72.3712 20.7261 68.4812 14.6419 63.3586Z" fill="#1A007F"/>
<path fill-rule="evenodd" clip-rule="evenodd" d="M99.5289 15.4808C98.7667 15.3288 97.9901 15.2511 97.2133 15.2511C91.6098 15.2511 86.7424 19.2415 85.6454 24.7329C84.5127 30.3941 81.8589 35.6671 78.202 40.1475L88.9302 62.7277C98.8331 54.1388 106.147 42.4444 108.768 29.3589C110.047 22.9536 105.904 16.7425 99.5289 15.4808Z" fill="#FF9396"/>
<path fill-rule="evenodd" clip-rule="evenodd" d="M58.2019 52.9743C55.9042 53.5243 53.5579 53.8153 51.2116 53.8153C49.3831 53.8153 47.4899 53.6051 45.5967 53.2008C37.7488 51.5347 29.8523 46.6823 25.3863 40.7784C24.2698 39.3065 23.3637 37.7698 22.7326 36.2008C20.2892 30.1676 13.4122 27.2561 7.37656 29.6824C1.34095 32.1248 -1.57168 38.9991 0.855512 45.0323C3.62251 51.8905 8.50925 58.1826 14.6419 63.3586C20.7213 68.4812 27.7391 72.3695 35.3054 74.8103C40.4996 76.4763 45.888 77.3983 51.1954 77.3983C57.0854 77.3983 62.8945 76.3793 68.4285 74.5192L58.2019 52.9743Z" fill="#002DC8"/>
<path fill-rule="evenodd" clip-rule="evenodd" d="M94.5936 74.6001L78.202 40.1315L78.1858 40.1476C78.1858 40.1476 78.1858 40.1315 78.202 40.1315L62.6032 7.32873C60.6518 3.22839 56.498 0.603211 51.956 0.599976C47.409 0.599976 43.2666 3.22031 41.3087 7.32873L25.4025 40.7784C29.8685 46.6822 37.765 51.5347 45.6129 53.2007L50.7585 42.3959C51.244 41.3769 52.7003 41.3769 53.1857 42.3959L73.4932 85.0976C75.4431 89.206 79.6065 91.8344 84.1567 91.8263C85.2085 91.8263 86.2602 91.6808 87.2958 91.3896C94.3994 89.4325 97.7651 81.2641 94.5936 74.6001Z" fill="#FF536A"/>
</svg>
