<svg width="58" height="88" viewBox="0 0 58 88" fill="none" xmlns="http://www.w3.org/2000/svg">
<path d="M29 44.3733C29 40.5276 30.5277 36.8395 33.247 34.1202C35.9662 31.401 39.6544 29.8733 43.5 29.8733C47.3456 29.8733 51.0338 31.401 53.753 34.1202C56.4723 36.8395 58 40.5276 58 44.3733C58 48.2189 56.4723 51.9071 53.753 54.6263C51.0338 57.3456 47.3456 58.8733 43.5 58.8733C39.6544 58.8733 35.9662 57.3456 33.247 54.6263C30.5277 51.9071 29 48.2189 29 44.3733Z" fill="#1ABCFE"/>
<path d="M0 73.3733C0 69.5276 1.52767 65.8395 4.24695 63.1202C6.96623 60.401 10.6544 58.8733 14.5 58.8733H29V73.3733C29 77.2189 27.4723 80.9071 24.753 83.6263C22.0338 86.3456 18.3456 87.8733 14.5 87.8733C10.6544 87.8733 6.96623 86.3456 4.24695 83.6263C1.52767 80.9071 0 77.2189 0 73.3733Z" fill="#0ACF83"/>
<path d="M29 0.873291V29.8733H43.5C47.3456 29.8733 51.0338 28.3456 53.753 25.6263C56.4723 22.9071 58 19.2189 58 15.3733C58 11.5277 56.4723 7.83952 53.753 5.12024C51.0338 2.40096 47.3456 0.873291 43.5 0.873291H29Z" fill="#FF7262"/>
<path d="M0 15.3733C0 19.2189 1.52767 22.9071 4.24695 25.6263C6.96623 28.3456 10.6544 29.8733 14.5 29.8733H29V0.873291H14.5C10.6544 0.873291 6.96623 2.40096 4.24695 5.12024C1.52767 7.83952 0 11.5277 0 15.3733Z" fill="#F24E1E"/>
<path d="M0 44.3733C0 48.2189 1.52767 51.9071 4.24695 54.6263C6.96623 57.3456 10.6544 58.8733 14.5 58.8733H29V29.8733H14.5C10.6544 29.8733 6.96623 31.401 4.24695 34.1202C1.52767 36.8395 0 40.5276 0 44.3733Z" fill="#A259FF"/>
</svg>
