<svg width="97" height="98" viewBox="0 0 97 98" fill="none" xmlns="http://www.w3.org/2000/svg">
<path d="M54.8313 21.7341C53.5871 20.1026 52.1456 18.652 50.3765 17.2441C52.9503 15.5886 55.6413 14.6198 58.4895 14.2286C71.6622 12.4188 82.2532 16.9912 90.0491 27.6346C100.707 42.1824 99.3825 64.4939 84.1875 77.8413C71.9527 88.5858 51.4103 86.2065 42.815 72.678C40.4676 68.9865 38.1257 65.3056 36.1354 61.4145C34.9843 59.1628 33.796 56.9352 32.3759 54.8379C30.9878 52.7832 29.4957 50.811 27.7585 48.9214V41.1471C29.2746 41.73 30.4016 42.7467 31.5073 43.7607C34.8085 46.7842 37.3077 50.4278 39.5085 54.2896C42.4526 59.4583 45.3568 64.6269 48.9084 69.4389C56.7124 80.0158 72.9758 81.6792 83.0072 69.9526C93.6381 57.5234 92.9853 38.1742 81.2247 27.2647C73.6445 20.2356 64.8094 18.5562 54.834 21.7367L54.8313 21.7341Z" fill="#0C0C0D"/>
<path d="M42.402 74.9349C43.8407 76.798 45.3381 78.4135 47.0513 80.0663C43.8061 82.27 40.3051 83.4331 36.6229 84.1171C23.5488 86.5524 13.941 81.0058 6.63796 70.7297C-5.8127 53.2117 -0.108257 27.3658 18.4172 17.5714C27.4894 12.7727 36.9533 12.0701 46.2946 16.9593C52.4707 20.1903 56.1395 25.3723 57.0321 32.388C57.4557 35.7202 56.9175 38.9167 55.5613 41.9428C52.8303 48.043 48.0131 51.9155 41.9037 54.4812C40.7154 52.674 39.5671 50.9254 38.408 49.1635C38.7464 48.6232 39.3859 48.6179 39.8948 48.397C43.2466 46.9465 46.1667 44.9424 48.2902 41.9136C52.6705 35.667 50.9067 27.222 44.4482 23.1419C40.0253 20.35 35.1975 19.8071 30.1565 20.4086C18.1348 21.8458 8.65756 32.034 6.91505 44.5724C5.49227 54.8032 8.21794 63.9136 15.4997 71.3978C22.6243 78.7196 32.5597 80.1355 41.5947 75.3288C41.8211 75.209 42.0556 75.1026 42.402 74.9349Z" fill="#0C0C0D"/>
<path d="M74.3106 13.7522C71.6196 13.2412 69.0485 12.267 66.3574 12.275C57.3145 3.35897 40.0467 3.30308 30.8918 12.2431C28.2115 12.3336 25.6004 13.156 22.9307 13.8959C25.6696 7.30865 37.3716 0.859817 46.8915 0.614958C58.279 0.322192 67.599 4.30647 74.3106 13.7522Z" fill="#0C0C0D"/>
<path d="M23.9164 85.7938C26.3917 86.1505 28.8322 86.4858 31.2488 86.3501C40.2704 94.638 56.6537 94.8403 65.9231 86.3607C68.3424 86.4672 70.7856 86.1452 73.2688 85.7859C67.1141 93.7065 58.8865 97.4912 49.0069 97.5976C38.8157 97.7068 30.3056 93.9434 23.9164 85.7938Z" fill="#0C0C0D"/>
<path d="M69.3415 41.006V49.0011C62.6432 55.7028 60.0561 64.9303 54.389 72.3399C52.5106 70.9506 51.1198 69.2632 49.689 67.3842C54.7167 60.6266 57.6236 52.5303 63.2481 46.14C64.9852 44.1678 66.8823 42.3873 69.3442 41.006H69.3415Z" fill="#0C0C0D"/>
<path d="M71.3105 48.0244V23.4347C73.6285 24.0681 75.6135 25.1434 77.4066 26.7243C77.4066 32.2576 77.4066 37.7882 77.4066 43.3162C77.4066 44.0933 77.0442 44.7294 76.562 45.307C75.3976 46.6963 73.0716 47.9232 71.3131 48.0217L71.3105 48.0244Z" fill="#0C0C0D"/>
<path d="M19.832 26.7031C21.5905 25.1089 23.5808 24.1268 25.8535 23.4241V48.0378C22.2965 47.7849 19.832 45.2166 19.832 41.8524C19.832 36.7956 19.832 31.7414 19.832 26.7058V26.7031Z" fill="#0C0C0D"/>
<path d="M65.6141 56.9484C67.0662 54.2843 68.6329 52.2056 70.402 50.2654C70.7857 49.8449 71.3532 49.8422 71.8435 49.6879C74.5825 48.8229 76.8578 47.2526 78.7069 45.0994C80.4334 43.0873 80.4201 41.69 78.8455 39.6486C82.3438 39.5076 85.3572 43.766 84.2621 47.3031C83.993 48.1681 83.5881 48.9746 82.9912 49.6426C78.4671 54.7154 72.6881 56.8393 65.6141 56.9484Z" fill="#0C0C0D"/>
<path d="M18.4837 39.5342C16.8158 41.6288 16.7572 42.9489 18.4012 44.969C20.1969 47.1727 22.4617 48.8415 25.1634 49.7278C26.5142 50.1722 27.4574 50.9254 28.2434 52.0113C29.3145 53.4911 30.4655 54.923 31.2355 56.7488C29.7274 57.1055 28.342 56.8579 26.9698 56.6184C22.5523 55.8439 18.6676 53.9702 15.3691 50.9228C14.5511 50.1669 13.8557 49.3046 13.3521 48.3065C11.4551 44.5485 14.0476 39.9653 18.4837 39.5342Z" fill="#0C0C0D"/>
<path d="M43.0068 24.3476C44.9225 25.4095 46.3852 26.9159 47.5442 28.8349C46.0015 32.5769 45.9296 36.3031 47.6268 40.0478C46.5211 41.9987 44.9624 43.5211 43.1666 44.8385C38.9889 39.5208 38.909 29.4523 43.0068 24.3476Z" fill="#0C0C0D"/>
<path d="M71.3212 58.0024C73.3514 57.4302 75.2938 56.6717 77.3294 55.7614V72.3426C75.6588 73.7053 73.7031 74.7353 71.3212 75.265V58.0024Z" fill="#0C0C0D"/>
<path d="M25.8455 75.2597C23.5088 74.7247 21.6384 73.7187 19.8879 72.3666V55.7881C21.8729 56.5919 23.7566 57.4515 25.8455 57.9705V75.2623V75.2597Z" fill="#0C0C0D"/>
<path d="M54.2878 47.029C55.7772 47.6997 57.1014 48.2958 58.5588 48.9532C57.4504 50.7684 56.3714 52.5356 55.2363 54.3934C53.3206 53.7839 51.6208 52.8177 49.8356 51.6493C51.4609 50.2015 52.9849 48.7802 54.2852 47.029H54.2878Z" fill="#0C0C0D"/>
</svg>
