<svg width="90" height="95" viewBox="0 0 90 95" fill="none" xmlns="http://www.w3.org/2000/svg">
<path d="M5.65756 4.65327L57.6883 0.814344C64.0774 0.265282 65.7215 0.633071 69.7373 3.55591L86.3462 15.2517C89.0867 17.263 90 17.8105 90 20.003V84.1506C90 88.1707 88.5383 90.5482 83.4278 90.912L23.0051 94.5676C19.1688 94.7511 17.343 94.2031 15.334 91.6432L3.103 75.7435C0.911382 72.8172 0 70.6274 0 68.0658V11.0473C0 7.75963 1.46208 5.01732 5.65756 4.65327Z" fill="white"/>
<path fill-rule="evenodd" clip-rule="evenodd" d="M57.6883 0.814344L5.65756 4.65327C1.46208 5.01732 0 7.75963 0 11.0473V68.0658C0 70.6274 0.911382 72.8172 3.103 75.7435L15.334 91.6432C17.343 94.2031 19.1688 94.7511 23.0051 94.5676L83.4278 90.912C88.5383 90.5482 90 88.1707 90 84.1506V20.003C90 17.9249 89.1793 17.3245 86.7601 15.5549C86.6268 15.4575 86.4891 15.3566 86.3462 15.2517L69.7373 3.55591C65.7215 0.633071 64.0774 0.265282 57.6883 0.814344ZM24.3751 18.9508C19.4419 19.2846 18.321 19.3604 15.5195 17.0802L8.39544 11.415C7.66883 10.6824 8.03326 9.76858 9.85749 9.58734L59.879 5.93192C64.0767 5.56562 66.267 7.03004 67.9108 8.30869L76.4903 14.5229C76.8555 14.7049 77.7667 15.8 76.671 15.8L25.0118 18.9079C24.7945 18.9225 24.5837 18.9367 24.3796 18.9505L24.3751 18.9508ZM18.6211 83.6012V29.1424C18.6211 26.7671 19.3514 25.6698 21.5408 25.4854L80.8696 22.0142C82.8818 21.8315 83.793 23.1116 83.793 25.4854V79.5786C83.793 81.9563 83.427 83.9695 80.1399 84.1506L23.3666 87.4417C20.0809 87.6227 18.6211 86.528 18.6211 83.6012ZM74.6676 32.0636C75.0317 33.7101 74.6676 35.355 73.0214 35.5401L70.2859 36.0862V76.291C67.9108 77.5702 65.7208 78.3011 63.8958 78.3011C60.9738 78.3011 60.2419 77.3867 58.0533 74.6469L40.1604 46.5033V73.7332L45.8224 75.0133C45.8224 75.0133 45.8224 78.3011 41.2543 78.3011L28.6612 79.0332C28.2952 78.3011 28.6612 76.4752 29.9386 76.1092L33.2248 75.1967V39.1941L28.6619 38.8277C28.2959 37.1811 29.2074 34.8075 31.765 34.6231L45.2745 33.7108L63.8958 62.2209V36.9998L59.1481 36.454C58.7836 34.4413 60.2419 32.9797 62.0677 32.7986L74.6676 32.0636Z" fill="black"/>
</svg>
