<svg width="134" height="90" viewBox="0 0 134 90" fill="none" xmlns="http://www.w3.org/2000/svg">
<path d="M75.1752 89.5H124.989C126.571 89.5001 128.125 89.089 129.495 88.3078C130.866 87.5266 132.003 86.4029 132.794 85.0499C133.585 83.6966 134.001 82.1618 134 80.5996C133.999 79.0373 133.582 77.5028 132.79 76.1503L99.3367 18.9362C98.546 17.5834 97.4086 16.4599 96.0387 15.6788C94.6688 14.8978 93.1148 14.4865 91.5329 14.4865C89.9511 14.4865 88.397 14.8978 87.0272 15.6788C85.6573 16.4599 84.5198 17.5834 83.7291 18.9362L75.1752 33.5752L58.4509 4.94896C57.6596 3.59631 56.5216 2.47298 55.1514 1.69201C53.7811 0.911179 52.2268 0.5 50.6447 0.5C49.0626 0.5 47.5084 0.911179 46.1381 1.69201C44.7678 2.47298 43.6298 3.59631 42.8385 4.94896L1.20994 76.1503C0.417995 77.5028 0.000689259 79.0373 8.53101e-07 80.5996C-0.000687552 82.1618 0.415265 83.6966 1.20602 85.0499C1.99678 86.4029 3.13445 87.5266 4.50463 88.3078C5.8748 89.089 7.42915 89.5001 9.01135 89.5H40.2801C52.6691 89.5 61.8056 84.1266 68.0922 73.6433L83.3553 47.5432L91.5305 33.5752L116.066 75.532H83.3553L75.1752 89.5ZM39.7703 75.5177L17.9487 75.5128L50.6593 19.5736L66.9806 47.5432L56.0528 66.2376C51.8778 73.0394 47.1348 75.5177 39.7703 75.5177Z" fill="#00DC82"/>
</svg>
