<svg width="149" height="90" viewBox="0 0 149 90" fill="none" xmlns="http://www.w3.org/2000/svg">
<path fill-rule="evenodd" clip-rule="evenodd" d="M74.5 0.600098C54.6333 0.600098 42.2167 10.5334 37.25 30.4001C44.7 20.4668 53.3917 16.7418 63.325 19.2251C68.9925 20.6406 73.0431 24.7547 77.5269 29.3047C84.8307 36.7188 93.285 45.3001 111.75 45.3001C131.617 45.3001 144.033 35.3668 149 15.5001C141.55 25.4334 132.858 29.1584 122.925 26.6751C117.257 25.2596 113.207 21.1455 108.723 16.5955C101.419 9.18139 92.965 0.600098 74.5 0.600098ZM37.25 45.3001C17.3833 45.3001 4.96667 55.2334 0 75.1001C7.45 65.1668 16.1417 61.4418 26.075 63.9251C31.7425 65.3434 35.7931 69.4547 40.2769 74.0047C47.5807 81.4188 56.035 90.0001 74.5 90.0001C94.3667 90.0001 106.783 80.0668 111.75 60.2001C104.3 70.1334 95.6083 73.8584 85.675 71.3751C80.0075 69.9596 75.9569 65.8455 71.4731 61.2955C64.1693 53.8814 55.715 45.3001 37.25 45.3001Z" fill="#38BDF8"/>
</svg>
