<svg width="139" height="88" viewBox="0 0 139 88" fill="none" xmlns="http://www.w3.org/2000/svg">
<path d="M127.415 12.4733H86.8741V0.873291H127.415V12.4733ZM137.412 70.4733C134.852 77.9959 125.66 87.8733 107.869 87.8733C90.0652 87.8733 75.6441 77.8451 75.6441 54.9583C75.6441 32.2803 89.1096 20.6223 107.301 20.6223C125.151 20.6223 136.051 30.9579 138.431 46.2931C138.883 49.2279 139.062 53.1835 138.981 58.7051H92.4919C93.2448 77.3289 112.664 77.9147 119.064 70.4733H137.412ZM92.8973 47.2733H121.653C121.045 38.3007 115.073 34.4031 107.307 34.4031C98.8164 34.4031 94.1194 38.8575 92.8973 47.2733ZM37.4485 87.8037H0V0.99509H40.269C71.9838 1.46489 72.5862 32.5703 56.0222 41.0499C76.0669 48.3579 76.7388 87.8037 37.4485 87.8037ZM17.3748 35.6733H38.1319C52.6573 35.6733 54.9623 18.2733 36.3249 18.2733H17.3748V35.6733ZM37.0141 53.0733H17.3748V70.5661H36.7246C54.4179 70.5661 53.3349 53.0733 37.0141 53.0733Z" fill="white"/>
</svg>
