<svg width="98" height="97" viewBox="0 0 98 97" fill="none" xmlns="http://www.w3.org/2000/svg">
<path fill-rule="evenodd" clip-rule="evenodd" d="M48.854 0.872925C21.839 0.872925 0 22.8729 0 50.0899C0 71.8459 13.993 90.2619 33.405 96.7799C35.832 97.2699 36.721 95.7209 36.721 94.4179C36.721 93.2769 36.641 89.3659 36.641 85.2909C23.051 88.2249 20.221 79.4239 20.221 79.4239C18.037 73.7199 14.801 72.2539 14.801 72.2539C10.353 69.2389 15.125 69.2389 15.125 69.2389C20.059 69.5649 22.648 74.2909 22.648 74.2909C27.015 81.7869 34.052 79.6689 36.883 78.3649C37.287 75.1869 38.582 72.9869 39.957 71.7649C29.118 70.6239 17.714 66.3869 17.714 47.4819C17.714 42.1039 19.654 37.7039 22.728 34.2819C22.243 33.0599 20.544 28.0069 23.214 21.2439C23.214 21.2439 27.339 19.9399 36.64 26.2959C40.6221 25.2186 44.7288 24.6705 48.854 24.6659C52.979 24.6659 57.184 25.2369 61.067 26.2959C70.369 19.9399 74.494 21.2439 74.494 21.2439C77.164 28.0069 75.464 33.0599 74.979 34.2819C78.134 37.7039 79.994 42.1039 79.994 47.4819C79.994 66.3869 68.59 70.5419 57.67 71.7649C59.45 73.3129 60.986 76.2459 60.986 80.8909C60.986 87.4909 60.906 92.7879 60.906 94.4169C60.906 95.7209 61.796 97.2699 64.222 96.7809C83.634 90.2609 97.627 71.8459 97.627 50.0899C97.707 22.8729 75.788 0.872925 48.854 0.872925Z" fill="#0C0C0D"/>
</svg>
