<svg width="90" height="91" viewBox="0 0 90 91" fill="none" xmlns="http://www.w3.org/2000/svg">
<path d="M0 7.32024C0 3.76173 2.97914 0.873291 6.65156 0.873291H83.3484C87.0223 0.873291 90 3.76173 90 7.32024V84.4274C90 87.987 87.0223 90.8733 83.3484 90.8733H6.65156C2.97949 90.8733 0 87.9873 0 84.4284V7.31919V7.32024Z" fill="#006699"/>
<path d="M27.3502 76.1914V35.6731H13.8825V76.1914H27.3516H27.3502ZM20.6191 30.1419C25.3146 30.1419 28.2378 27.0306 28.2378 23.1423C28.15 19.1654 25.3146 16.141 20.7084 16.141C16.0991 16.141 13.0887 19.1654 13.0887 23.142C13.0887 27.0303 16.0109 30.1416 20.5309 30.1416H20.6181L20.6191 30.1419ZM34.8047 76.1914H48.2713V53.5665C48.2713 52.3572 48.3592 51.1446 48.715 50.2808C49.6881 47.8603 51.904 45.3547 55.6253 45.3547C60.4972 45.3547 62.4473 49.0701 62.4473 54.5175V76.1914H75.9136V52.9594C75.9136 40.5144 69.2705 34.7231 60.41 34.7231C53.1457 34.7231 49.9553 38.7833 48.1827 41.5487H48.2723V35.6745H34.8054C34.9812 39.4756 34.8043 76.1928 34.8043 76.1928L34.8047 76.1914Z" fill="white"/>
</svg>
