<svg width="93" height="94" viewBox="0 0 93 94" fill="none" xmlns="http://www.w3.org/2000/svg">
<path d="M46.5152 0.873291C27.1019 0.873291 21.4242 0.893323 20.3206 0.9849C16.3366 1.31615 13.8576 1.9436 11.1568 3.28863C9.07541 4.32245 7.43391 5.52082 5.81387 7.20069C2.86346 10.2642 1.07534 14.0332 0.428037 18.5133C0.113327 20.6883 0.0217754 21.1318 0.00317889 32.2413C-0.00397361 35.9444 0.00317889 40.818 0.00317889 47.355C0.00317889 66.7579 0.0246364 72.4314 0.117619 73.5332C0.439481 77.4109 1.04744 79.8506 2.33489 82.5192C4.79535 87.6275 9.49455 91.4622 15.0306 92.8931C16.9475 93.3868 19.0646 93.6587 21.7825 93.7874C22.9341 93.8375 34.6713 93.8733 46.4158 93.8733C58.1602 93.8733 69.9046 93.859 71.0275 93.8018C74.1746 93.6537 76.0021 93.4082 78.0227 92.886C83.5945 91.4479 88.2078 87.6704 90.7184 82.4906C91.9808 79.8863 92.6209 77.3537 92.9106 73.6784C92.9735 72.8771 93 60.1014 93 47.3429C93 34.5822 92.9714 21.8301 92.9085 21.0288C92.6152 17.2942 91.975 14.783 90.6719 12.1287C89.6026 9.95587 88.4152 8.33324 86.6915 6.67412C83.6152 3.73507 79.853 1.94646 75.3698 1.2997C73.1976 0.985616 72.7649 0.892608 61.6499 0.873291H46.5152Z" fill="url(#paint0_radial_13_43)"/>
<path d="M46.5152 0.873291C27.1019 0.873291 21.4242 0.893323 20.3206 0.9849C16.3366 1.31615 13.8576 1.9436 11.1568 3.28863C9.07541 4.32245 7.43391 5.52082 5.81387 7.20069C2.86346 10.2642 1.07534 14.0332 0.428037 18.5133C0.113327 20.6883 0.0217754 21.1318 0.00317889 32.2413C-0.00397361 35.9444 0.00317889 40.818 0.00317889 47.355C0.00317889 66.7579 0.0246364 72.4314 0.117619 73.5332C0.439481 77.4109 1.04744 79.8506 2.33489 82.5192C4.79535 87.6275 9.49455 91.4622 15.0306 92.8931C16.9475 93.3868 19.0646 93.6587 21.7825 93.7874C22.9341 93.8375 34.6713 93.8733 46.4158 93.8733C58.1602 93.8733 69.9046 93.859 71.0275 93.8018C74.1746 93.6537 76.0021 93.4082 78.0227 92.886C83.5945 91.4479 88.2078 87.6704 90.7184 82.4906C91.9808 79.8863 92.6209 77.3537 92.9106 73.6784C92.9735 72.8771 93 60.1014 93 47.3429C93 34.5822 92.9714 21.8301 92.9085 21.0288C92.6152 17.2942 91.975 14.783 90.6719 12.1287C89.6026 9.95587 88.4152 8.33324 86.6915 6.67412C83.6152 3.73507 79.853 1.94646 75.3698 1.2997C73.1976 0.985616 72.7649 0.892608 61.6499 0.873291H46.5152Z" fill="url(#paint1_radial_13_43)"/>
<path d="M46.4937 13.0359C37.1697 13.0359 35.9996 13.0766 32.3375 13.2433C28.6826 13.4108 26.1878 13.9895 24.0048 14.8388C21.7468 15.7159 19.8313 16.8892 17.9231 18.7988C16.0133 20.7076 14.8403 22.6235 13.9606 24.8815C13.1094 27.0657 12.5301 29.5619 12.3656 33.2164C12.2018 36.8795 12.1589 38.0507 12.1589 47.3772C12.1589 56.7038 12.2003 57.8707 12.3663 61.5337C12.5344 65.1897 13.113 67.6851 13.9613 69.8687C14.8389 72.1273 16.0119 74.0433 17.9209 75.9521C19.8285 77.8623 21.7439 79.0385 24.0005 79.9157C26.1849 80.7649 28.6804 81.3437 32.3346 81.5111C35.9967 81.6778 37.1661 81.7186 46.4894 81.7186C55.8141 81.7186 56.9807 81.6778 60.6428 81.5111C64.2977 81.3437 66.7954 80.7649 68.9798 79.9157C71.2371 79.0385 73.1497 77.8623 75.0572 75.9521C76.967 74.0433 78.14 72.1273 79.0197 69.8694C79.8637 67.6851 80.4431 65.1889 80.6147 61.5345C80.7792 57.8714 80.8222 56.7038 80.8222 47.3772C80.8222 38.0507 80.7792 36.8802 80.6147 33.2171C80.4431 29.5612 79.8637 27.0657 79.0197 24.8822C78.14 22.6235 76.967 20.7076 75.0572 18.7988C73.1475 16.8885 71.2378 15.7152 68.9776 14.8388C66.7889 13.9895 64.2927 13.4108 60.6378 13.2433C56.9757 13.0766 55.8099 13.0359 46.483 13.0359H46.4937ZM43.4139 19.2245C44.3279 19.223 45.3479 19.2245 46.4937 19.2245C55.6604 19.2245 56.7468 19.2574 60.3667 19.4219C63.7141 19.575 65.5308 20.1345 66.741 20.6046C68.3432 21.227 69.4854 21.9711 70.6863 23.173C71.888 24.3749 72.6318 25.5197 73.2555 27.1223C73.7254 28.3314 74.2855 30.1486 74.4378 33.4969C74.6023 37.117 74.6381 38.2045 74.6381 47.3694C74.6381 56.5342 74.6023 57.6217 74.4378 61.2418C74.2848 64.5901 73.7254 66.4074 73.2555 67.6165C72.6333 69.2191 71.888 70.3602 70.6863 71.5614C69.4847 72.7634 68.3439 73.5074 66.741 74.1299C65.5322 74.6021 63.7141 75.1601 60.3667 75.3132C56.7475 75.4778 55.6604 75.5135 46.4937 75.5135C37.3264 75.5135 36.2399 75.4778 32.6207 75.3132C29.2734 75.1587 27.4566 74.5992 26.2457 74.1292C24.6435 73.5067 23.4991 72.7626 22.2975 71.5607C21.0959 70.3588 20.352 69.2169 19.7283 67.6136C19.2584 66.4045 18.6984 64.5873 18.546 61.239C18.3815 57.6188 18.3486 56.5313 18.3486 47.3608C18.3486 38.1902 18.3815 37.1084 18.546 33.4883C18.6991 30.14 19.2584 28.3228 19.7283 27.1122C20.3506 25.5096 21.0959 24.3649 22.2975 23.163C23.4991 21.961 24.6435 21.217 26.2457 20.5931C27.4559 20.1209 29.2734 19.5629 32.6207 19.409C35.7879 19.266 37.0152 19.223 43.4139 19.2159V19.2245ZM64.8199 24.9266C62.5454 24.9266 60.7 26.7703 60.7 29.0461C60.7 31.3212 62.5454 33.1671 64.8199 33.1671C67.0944 33.1671 68.9397 31.3212 68.9397 29.0461C68.9397 26.771 67.0944 24.9251 64.8199 24.9251V24.9266ZM46.4937 29.7415C36.757 29.7415 28.8628 37.6379 28.8628 47.3772C28.8628 57.1166 36.757 65.0094 46.4937 65.0094C56.2304 65.0094 64.1218 57.1166 64.1218 47.3772C64.1218 37.6379 56.2304 29.7415 46.4937 29.7415ZM46.4937 35.9301C52.8137 35.9301 57.9377 41.0548 57.9377 47.3772C57.9377 53.6989 52.8137 58.8243 46.4937 58.8243C40.1731 58.8243 35.0497 53.6989 35.0497 47.3772C35.0497 41.0548 40.1731 35.9301 46.4937 35.9301Z" fill="white"/>
<defs>
<radialGradient id="paint0_radial_13_43" cx="0" cy="0" r="1" gradientUnits="userSpaceOnUse" gradientTransform="translate(24.7032 101.036) rotate(-90) scale(92.1699 85.7252)">
<stop stop-color="#FFDD55"/>
<stop offset="0.1" stop-color="#FFDD55"/>
<stop offset="0.5" stop-color="#FF543E"/>
<stop offset="1" stop-color="#C837AB"/>
</radialGradient>
<radialGradient id="paint1_radial_13_43" cx="0" cy="0" r="1" gradientUnits="userSpaceOnUse" gradientTransform="translate(-15.578 7.57285) rotate(78.6806) scale(41.2003 169.829)">
<stop stop-color="#3771C8"/>
<stop offset="0.128" stop-color="#3771C8"/>
<stop offset="1" stop-color="#6600FF" stop-opacity="0"/>
</radialGradient>
</defs>
</svg>
