<svg width="587" height="118" viewBox="0 0 587 118" fill="none" xmlns="http://www.w3.org/2000/svg">
<path d="M66.701 25.7095C65.1873 23.7247 63.4338 21.9602 61.2817 20.2474C64.4127 18.2336 67.6863 17.0551 71.1511 16.5791C87.1757 14.3775 100.059 19.9399 109.543 32.8875C122.508 50.5848 120.897 77.7265 102.413 93.9637C87.529 107.034 62.5392 104.14 52.0831 87.6825C49.2276 83.1918 46.3786 78.714 43.9574 73.9805C42.5572 71.2414 41.1116 68.5314 39.3841 65.9801C37.6954 63.4806 35.8803 61.0815 33.767 58.7827V49.3253C35.6113 50.0344 36.9823 51.2712 38.3274 52.5048C42.3433 56.1828 45.3835 60.6152 48.0608 65.3131C51.6423 71.6008 55.1752 77.8884 59.4957 83.7422C68.9892 96.6089 88.7736 98.6324 100.977 84.3671C113.909 69.247 113.115 45.7088 98.8084 32.4374C89.5871 23.8866 78.8393 21.8436 66.7042 25.7127L66.701 25.7095Z" fill="white"/>
<path d="M51.5807 90.4281C53.331 92.6945 55.1525 94.6598 57.2366 96.6704C53.2888 99.3512 49.0299 100.766 44.5505 101.598C28.6459 104.561 16.9581 97.8133 8.074 85.3125C-7.07216 64.0019 -0.132734 32.5605 22.4034 20.6457C33.4397 14.8081 44.9525 13.9533 56.3161 19.901C63.8292 23.8316 68.2924 30.1354 69.3782 38.67C69.8935 42.7236 69.2388 46.6121 67.589 50.2934C64.2668 57.7142 58.4067 62.4251 50.9746 65.5463C49.529 63.3479 48.1321 61.2207 46.7221 59.0773C47.1338 58.4201 47.9117 58.4136 48.5307 58.1449C52.6082 56.3803 56.1605 53.9423 58.7438 50.2578C64.0723 42.6589 61.9267 32.3856 54.07 27.4222C48.6896 24.0259 42.8165 23.3654 36.6841 24.0971C22.0598 25.8454 10.5308 38.2394 8.41109 53.4923C6.68028 65.938 9.99604 77.0207 18.8543 86.1252C27.5212 95.0321 39.6077 96.7546 50.5986 90.9073C50.8741 90.7616 51.1594 90.632 51.5807 90.4281Z" fill="white"/>
<path d="M90.3974 15.9996C87.1238 15.3779 83.996 14.1929 80.7224 14.2026C69.7218 3.35631 48.7155 3.28832 37.5787 14.1638C34.3181 14.2739 31.1417 15.2743 27.894 16.1744C31.2259 8.16107 45.4613 0.316096 57.0422 0.0182265C70.8951 -0.337922 82.2328 4.50893 90.3974 15.9996Z" fill="white"/>
<path d="M29.0932 103.638C32.1043 104.072 35.0733 104.48 38.013 104.315C48.9878 114.397 68.9179 114.643 80.1941 104.328C83.1371 104.457 86.1093 104.065 89.1301 103.628C81.6429 113.264 71.6341 117.868 59.6157 117.997C47.2181 118.13 36.8656 113.552 29.0932 103.638Z" fill="white"/>
<path d="M84.3526 49.1537V58.8798C76.2042 67.0324 73.057 78.2575 66.1629 87.2713C63.8779 85.5812 62.186 83.5285 60.4454 81.2427C66.5616 73.0221 70.0977 63.173 76.9399 55.3993C79.0532 53.0001 81.3609 50.8341 84.3558 49.1537H84.3526Z" fill="white"/>
<path d="M86.7478 57.6916V27.7784C89.5677 28.5489 91.9824 29.857 94.1637 31.7802C94.1637 38.5114 94.1637 45.2393 94.1637 51.9641C94.1637 52.9095 93.7229 53.6833 93.1362 54.3859C91.7198 56.076 88.8903 57.5685 86.7511 57.6883L86.7478 57.6916Z" fill="white"/>
<path d="M24.1245 31.7543C26.2637 29.8149 28.6848 28.6202 31.4496 27.7654V57.7078C27.1226 57.4002 24.1245 54.2758 24.1245 50.1833C24.1245 44.0317 24.1245 37.8833 24.1245 31.7575V31.7543Z" fill="white"/>
<path d="M79.8181 68.5476C81.5846 65.3067 83.4904 62.778 85.6426 60.4177C86.1093 59.9062 86.7997 59.9029 87.3961 59.7151C90.728 58.6629 93.496 56.7526 95.7454 54.1333C97.8457 51.6856 97.8295 49.9858 95.914 47.5025C100.17 47.3309 103.835 52.5112 102.503 56.8141C102.176 57.8664 101.683 58.8474 100.957 59.6601C95.4537 65.8312 88.4235 68.4149 79.8181 68.5476Z" fill="white"/>
<path d="M22.4844 47.3633C20.4554 49.9114 20.3841 51.5173 22.3839 53.9747C24.5685 56.6555 27.3235 58.6856 30.6101 59.7637C32.2534 60.3044 33.4008 61.2207 34.3569 62.5417C35.6599 64.3418 37.0601 66.0837 37.9968 68.3048C36.1623 68.7386 34.4769 68.4375 32.8077 68.1461C27.4337 67.204 22.7081 64.9246 18.6954 61.2174C17.7004 60.2979 16.8544 59.2489 16.2418 58.0348C13.9341 53.4631 17.0878 47.8878 22.4844 47.3633Z" fill="white"/>
<path d="M52.3165 28.8889C54.6469 30.1807 56.4263 32.0133 57.8363 34.3477C55.9596 38.8999 55.8721 43.4327 57.9367 47.9882C56.5916 50.3614 54.6955 52.2134 52.5109 53.816C47.4287 47.3471 47.3315 35.0988 52.3165 28.8889Z" fill="white"/>
<path d="M86.7608 69.8298C89.2306 69.1336 91.5934 68.2109 94.0697 67.1036V87.2745C92.0375 88.9322 89.6584 90.1852 86.7608 90.8295V69.8298Z" fill="white"/>
<path d="M31.4399 90.8231C28.5973 90.1723 26.322 88.9484 24.1925 87.3037V67.136C26.6072 68.1138 28.8988 69.1595 31.4399 69.7909V90.8263V90.8231Z" fill="white"/>
<path d="M66.0397 56.4807C67.8516 57.2966 69.4625 58.0218 71.2354 58.8215C69.8871 61.0297 68.5744 63.1795 67.1936 65.4394C64.8632 64.698 62.7953 63.5227 60.6237 62.1013C62.6008 60.34 64.4548 58.6111 66.0365 56.4807H66.0397Z" fill="white"/>
<path d="M521.381 93.8785L510.502 82.3347C522.346 80.251 526.577 73.3669 526.577 67.9913C526.577 60.7492 520.288 53.015 502.646 53.015H482.793V54.3573H483.291C484.205 54.3573 485.138 54.5682 486.065 54.9901C486.883 55.3608 487.261 55.9745 487.261 56.9141V94.0128C487.261 94.9524 486.877 95.5596 486.065 95.9367C485.138 96.3586 484.205 96.5695 483.291 96.5695H482.793V97.9118H496.343V96.5695H495.845C494.924 96.5695 493.991 96.3586 493.071 95.9367C492.253 95.566 491.875 94.9524 491.875 94.0128V82.8972H504.538L518.523 97.9118H530.259L526.871 96.9275C524.96 96.3714 523.509 95.5596 521.393 93.8722L521.381 93.8785ZM491.364 75.0607V74.722H491.863V54.8367H502.812C515.839 54.8367 520.479 61.6313 520.479 67.9913C520.479 76.109 513.71 81.1458 502.812 81.1458H491.863V75.0543H491.364V75.0607Z" fill="white"/>
<path d="M198.806 55.4503H199.305C200.219 55.4503 201.152 55.6612 202.079 56.0831C202.897 56.4538 203.274 57.0675 203.274 58.0071V75.31H167.077V58.0071C167.077 57.0675 167.46 56.4602 168.272 56.0831C169.199 55.6612 170.132 55.4503 171.046 55.4503H171.544V54.108H158V55.4503H158.499C159.413 55.4503 160.346 55.6612 161.273 56.0831C162.091 56.4538 162.468 57.0675 162.468 58.0071V94.0191C162.468 94.9588 162.084 95.566 161.273 95.9431C160.346 96.365 159.413 96.5759 158.499 96.5759H158V97.9182H171.551V96.5759H171.052C170.132 96.5759 169.199 96.365 168.278 95.9431C167.46 95.5724 167.083 94.9588 167.083 94.0191V76.6523H203.293V94.0191C203.293 94.9588 202.91 95.566 202.098 95.9431C201.171 96.365 200.238 96.5759 199.324 96.5759H198.825V97.9182H212.376V96.5759H211.877C210.957 96.5759 210.024 96.365 209.103 95.9431C208.285 95.5724 207.908 94.9588 207.908 94.0191V58.0071C207.908 57.0675 208.292 56.4602 209.103 56.0831C210.03 55.6612 210.963 55.4503 211.877 55.4503H212.376V54.108H198.825V55.4503H198.806Z" fill="white"/>
<path d="M268.516 55.9489C264.087 54.0058 258.967 53.0214 253.31 53.0214C247.653 53.0214 242.52 54.0058 238.059 55.9489C233.578 57.8984 230.037 60.6534 227.538 64.1306C225.032 67.6206 223.76 71.6411 223.76 76.0771C223.76 80.513 225.032 84.5208 227.538 87.9916C230.037 91.4496 233.578 94.179 238.059 96.1093C242.52 98.0333 247.647 99.0049 253.31 99.0049C258.973 99.0049 264.087 98.0333 268.516 96.1093C272.971 94.179 276.493 91.4496 278.993 87.9916C281.505 84.5208 282.777 80.513 282.777 76.0771C282.777 71.6411 281.505 67.6206 278.999 64.1306C276.5 60.6534 272.978 57.8984 268.523 55.9489H268.516ZM231.833 87.2246C229.762 83.9711 228.707 80.219 228.707 76.0771C228.707 71.9351 229.756 68.1063 231.833 64.8273C233.91 61.5482 236.838 58.9531 240.539 57.125C244.253 55.2905 248.548 54.3573 253.304 54.3573C258.059 54.3573 262.335 55.2905 266.023 57.125C269.692 58.9531 272.607 61.5418 274.684 64.8273C276.755 68.1063 277.81 71.8904 277.81 76.0771C277.81 80.2638 276.762 83.9647 274.684 87.2246C272.607 90.4844 269.692 93.0668 266.017 94.8949C262.329 96.7294 258.053 97.6626 253.297 97.6626C248.542 97.6626 244.246 96.7294 240.532 94.8949C236.832 93.0668 233.898 90.4844 231.827 87.2246H231.833Z" fill="white"/>
<path d="M347.699 85.8631C345.417 89.3531 342.369 92.0952 338.629 94.0128C334.884 95.9367 330.607 96.9147 325.916 96.9147C320.802 96.9147 316.149 95.9623 312.084 94.0767C308.031 92.1975 304.822 89.5832 302.547 86.2977C300.278 83.0251 299.127 79.273 299.127 75.131C299.127 70.9891 300.163 67.2434 302.202 64.1242C304.247 61.0049 307.155 58.576 310.85 56.9013C314.57 55.2202 318.904 54.3637 323.723 54.3637C329.911 54.3637 334.839 55.5334 338.367 57.8473C341.876 60.1484 343.583 63.2676 343.583 67.384V67.8826H345.028V58.4354L344.746 58.3011C342.573 57.2528 340.643 56.3963 339.013 55.738C337.357 55.0732 335.178 54.4468 332.525 53.8779C329.866 53.309 326.906 53.015 323.73 53.015C318.073 53.015 312.94 53.9994 308.479 55.9425C303.998 57.8984 300.457 60.647 297.964 64.1242C295.458 67.6142 294.186 71.6347 294.186 76.0707C294.186 80.5066 295.458 84.5144 297.97 87.9852C300.47 91.4432 304.011 94.1726 308.491 96.1029C312.953 98.0269 318.086 98.9985 323.742 98.9985C329.399 98.9985 334.615 97.8735 338.847 95.6427C343.091 93.4183 346.472 90.3502 348.908 86.5342L349.233 86.0165L347.936 85.5115L347.712 85.8503L347.699 85.8631Z" fill="white"/>
<path d="M399.142 55.4503H399.64C400.554 55.4503 401.487 55.6612 402.414 56.0831C403.232 56.4538 403.609 57.0675 403.609 58.0071V75.31H367.399V58.0071C367.399 57.0675 367.783 56.4602 368.595 56.0831C369.521 55.6612 370.455 55.4503 371.375 55.4503H371.874V54.108H358.323V55.4503H358.821C359.735 55.4503 360.669 55.6612 361.595 56.0831C362.414 56.4538 362.791 57.0675 362.791 58.0071V94.0191C362.791 94.9588 362.407 95.566 361.595 95.9431C360.669 96.365 359.735 96.5759 358.821 96.5759H358.323V97.9182H371.874V96.5759H371.375C370.455 96.5759 369.521 96.365 368.595 95.9431C367.776 95.5724 367.399 94.9588 367.399 94.0191V76.6523H403.609V94.0191C403.609 94.9588 403.226 95.566 402.414 95.9431C401.487 96.365 400.554 96.5759 399.64 96.5759H399.142V97.9182H412.692V96.5759H412.194C411.273 96.5759 410.34 96.365 409.42 95.9431C408.602 95.5724 408.218 94.9588 408.218 94.0191V58.0071C408.218 57.0675 408.602 56.4602 409.42 56.0831C410.347 55.6612 411.28 55.4503 412.194 55.4503H412.692V54.108H399.142V55.4503Z" fill="white"/>
<path d="M473.019 96.0006C472.067 95.6299 471.345 94.9907 470.82 94.0575L449.35 54.108H440.216V55.4503H440.715C442.172 55.4503 443.374 55.6037 444.288 55.8977C445.093 56.1662 445.783 56.799 446.352 57.7897L427.72 93.789C427.189 94.8245 426.441 95.5212 425.431 95.9303C424.383 96.3586 423.418 96.5695 422.549 96.5695H422.05V97.9118H432.533V96.5695H432.034C431.274 96.5695 430.526 96.4289 429.797 96.1604C429.036 95.8792 428.941 95.4445 428.941 95.0994C428.941 94.8501 429.017 94.5561 429.145 94.2429L433.92 85.0705H460.958L465.995 94.4602C466.129 94.7031 466.193 94.9204 466.193 95.0994C466.193 95.387 466.097 95.8089 465.247 96.1221C464.461 96.4161 463.706 96.5631 463.01 96.5631H462.511V97.9054H476.324V96.5631H475.825C474.956 96.5631 474.01 96.3714 473.026 95.9879L473.019 96.0006ZM434.61 83.7345L447.222 59.3558L460.248 83.7345H434.61Z" fill="white"/>
<path d="M583.082 64.7633C580.493 61.4523 576.977 58.8188 572.618 56.9332C568.272 55.0604 563.497 54.108 558.422 54.108H537.91V55.4503H538.409C539.323 55.4503 540.256 55.6612 541.183 56.0831C542.001 56.4538 542.378 57.0675 542.378 58.0071V94.0191C542.378 94.9588 541.995 95.566 541.183 95.9431C540.256 96.365 539.323 96.5759 538.409 96.5759H537.91V97.9182H558.422C563.497 97.9182 568.272 96.9914 572.612 95.1633C576.971 93.3288 580.493 90.7273 583.075 87.4355C585.683 84.1245 587 80.3277 587 76.1537C587 71.9798 585.677 68.1063 583.075 64.7697L583.082 64.7633ZM546.987 55.4503H558.422C562.941 55.4503 567.064 56.3452 570.662 58.1157C574.242 59.8799 577.067 62.3664 579.061 65.5112C581.049 68.656 582.059 72.2355 582.059 76.1473C582.059 80.0592 581.056 83.6706 579.068 86.7451C577.08 89.826 574.267 92.255 570.713 93.9744C567.147 95.7002 563.011 96.5759 558.428 96.5759H546.993V55.4503H546.987Z" fill="white"/>
<path d="M307.91 34.4528V18.2557H309.687L316.226 27.4153L322.745 18.2557H324.605V34.4528H322.605V21.6818C322.144 22.3849 321.601 23.1583 320.968 24.0084L316.27 30.7072L309.904 21.669V34.4528H307.903H307.91Z" fill="white"/>
<path d="M334.206 34.4528L341.857 18.2557H343.583L351.234 34.4528H349.157L347.693 31.3016H337.76L336.258 34.4528H334.206ZM338.546 29.6525H346.926L342.701 20.5568C342.221 21.8416 341.736 22.9793 341.256 23.9829L338.546 29.6589V29.6525Z" fill="white"/>
<path d="M360.828 34.4528V18.2557H362.829V34.4528H360.828Z" fill="white"/>
<path d="M373.376 32.2284L374.277 30.7007C375.696 32.1517 377.492 32.874 379.678 32.874C380.778 32.874 381.768 32.6183 382.638 32.1134C383.513 31.6084 383.948 30.8797 383.948 29.9273C383.948 29.5758 383.865 29.2562 383.699 28.9685C383.532 28.6809 383.341 28.438 383.123 28.259C382.906 28.0737 382.593 27.8947 382.184 27.7221C381.775 27.5495 381.417 27.4153 381.11 27.3322C380.803 27.2491 380.4 27.1341 379.895 26.9998C379.167 26.8017 378.598 26.6419 378.176 26.5268C377.754 26.4118 377.249 26.2264 376.648 25.9771C376.048 25.7278 375.587 25.4594 375.261 25.1653C374.935 24.8713 374.654 24.4878 374.411 24.0148C374.168 23.5418 374.047 23.0049 374.047 22.404C374.047 21.0553 374.609 19.9815 375.734 19.1889C376.859 18.3963 378.182 18 379.697 18C381.749 18 383.577 18.6072 385.194 19.8217L384.268 21.3685C382.919 20.333 381.391 19.8217 379.691 19.8217C378.841 19.8217 378.035 20.039 377.281 20.4673C376.521 20.8955 376.143 21.5283 376.143 22.3593C376.143 22.6917 376.22 22.9921 376.38 23.2542C376.54 23.5162 376.725 23.7399 376.93 23.9125C377.141 24.0851 377.441 24.2513 377.844 24.4111C378.246 24.5709 378.604 24.6923 378.918 24.7754C379.231 24.8585 379.665 24.9736 380.209 25.1206C380.867 25.2996 381.442 25.453 381.934 25.5872C382.427 25.7214 382.951 25.9196 383.507 26.188C384.063 26.4565 384.51 26.7505 384.843 27.0701C385.175 27.3897 385.456 27.7924 385.693 28.2782C385.923 28.764 386.044 29.3137 386.044 29.9145C386.044 31.4486 385.412 32.6247 384.146 33.4493C382.88 34.2738 381.385 34.6893 379.672 34.6893C377.089 34.6893 374.986 33.8647 373.369 32.2156L373.376 32.2284Z" fill="white"/>
<path d="M398.304 20.4417C399.94 18.8182 401.935 18.0064 404.306 18.0064C406.678 18.0064 408.672 18.8182 410.308 20.4417C411.945 22.0653 412.756 24.0404 412.756 26.3542C412.756 28.6681 411.945 30.6432 410.321 32.2668C408.697 33.8903 406.69 34.7021 404.306 34.7021C401.922 34.7021 399.921 33.8903 398.291 32.2668C396.668 30.6432 395.856 28.6681 395.856 26.3542C395.856 24.0404 396.674 22.0653 398.304 20.4417ZM399.793 30.9628C401.021 32.2348 402.523 32.874 404.306 32.874C406.09 32.874 407.592 32.2348 408.819 30.9628C410.046 29.6908 410.653 28.1504 410.653 26.3479C410.653 24.5453 410.04 22.9921 408.819 21.7201C407.592 20.4545 406.09 19.8217 404.306 19.8217C402.523 19.8217 401.021 20.4545 399.793 21.7201C398.566 22.9857 397.959 24.5262 397.959 26.3479C397.959 28.1695 398.573 29.6844 399.793 30.9628Z" fill="white"/>
<path d="M423.303 34.4528V18.2557H425.31L432.98 28.3421C433.281 28.7384 433.62 29.1859 433.997 29.6844C434.374 30.183 434.649 30.5857 434.821 30.8925L435.102 31.3847V18.2557H437.103V34.4528H435.102L427.656 24.6604C427.304 24.1938 426.927 23.7016 426.518 23.1711C426.115 22.6405 425.809 22.2187 425.61 21.9055L425.304 21.4325V34.4528H423.303Z" fill="white"/>
</svg>
